<?xml version="1.0" encoding="UTF-8"?>
<svg version="1.1" xmlns="http://www.w3.org/2000/svg" width="901" height="616">
<path d="M0 0 C204.93 0 409.86 0 621 0 C619.10102062 3.79795876 618.40179458 4.75502858 615.17578125 7.1015625 C614.40250488 7.66883057 613.62922852 8.23609863 612.83251953 8.82055664 C612.00091309 9.41602295 611.16930664 10.01148926 610.3125 10.625 C609.45253418 11.24818115 608.59256836 11.8713623 607.70654297 12.51342773 C600.26369135 17.87639511 592.72565543 23.05417955 585 28 C583.87682373 28.72388916 583.87682373 28.72388916 582.73095703 29.46240234 C568.2374696 38.76226799 553.29272064 47.09087407 538 55 C536.61385498 55.72268066 536.61385498 55.72268066 535.19970703 56.45996094 C470.32040421 89.96369474 394.74062458 106.06203195 322 107 C320.70618408 107.02271973 320.70618408 107.02271973 319.38623047 107.04589844 C313.92086607 107.13627147 308.46493171 107.10122238 303 107 C302.10361816 106.98743164 301.20723633 106.97486328 300.28369141 106.96191406 C233.39838731 105.85412975 167.32253682 90.46015958 106 64 C105.22060059 63.66935547 104.44120117 63.33871094 103.63818359 62.99804688 C67.63975106 47.71447518 29.28219219 27.26044262 0 1 C0 0.67 0 0.34 0 0 Z " fill="#66AA31" transform="translate(86,492)"/>
<path d="M0 0 C2.54833803 1.81368202 4.58406729 3.58406729 6.8125 5.8125 C10.38120523 8.28314208 12.20209851 8.50830396 16.4375 9 C24.19369999 9.93746545 27.94581897 12.94581897 33.3125 18.3125 C37.87516041 25.48239493 39.70351292 32.62630355 40.0625 41.0625 C40.67996094 41.08828125 41.29742187 41.1140625 41.93359375 41.140625 C51.17159046 41.75930362 58.17690433 44.24378889 64.55859375 51.12890625 C75.43702648 65.11546261 71.05681694 84.94394321 69.0390625 101.21484375 C64.28499898 136.32896715 51.42648551 162.15969493 23.125 183.875 C22.41988281 184.42929688 21.71476563 184.98359375 20.98828125 185.5546875 C19.79983583 186.48519446 18.5918729 187.39204666 17.35546875 188.2578125 C12.57182621 192.1089475 11.60323385 197.40355988 10.03076172 203.08422852 C7.92431727 210.31411654 4.33340969 214.88189354 -1.9375 219.0625 C-1.79127197 219.80298584 -1.64504395 220.54347168 -1.49438477 221.30639648 C-0.82577941 224.703527 -0.16285197 228.10174239 0.5 231.5 C0.73009766 232.66466797 0.96019531 233.82933594 1.19726562 235.02929688 C1.53081055 236.74536133 1.53081055 236.74536133 1.87109375 238.49609375 C2.07532959 239.53822021 2.27956543 240.58034668 2.48999023 241.65405273 C3.67116873 248.6862203 4.21503083 255.58437841 4.1953125 262.7109375 C4.19626923 263.49014557 4.19722595 264.26935364 4.19821167 265.07217407 C4.19888608 266.70062339 4.19708398 268.32907552 4.19287109 269.95751953 C4.18746814 272.45220898 4.19286349 274.94672198 4.19921875 277.44140625 C4.19855869 279.0312504 4.19727903 280.62109443 4.1953125 282.2109375 C4.19733673 282.95467621 4.19936096 283.69841492 4.20144653 284.46469116 C4.18714778 287.60132632 4.06205982 290.06382053 3.0625 293.0625 C-1.55042599 295.1694662 -5.72977781 295.30419278 -10.75 295.25 C-11.42998047 295.24935547 -12.10996094 295.24871094 -12.81054688 295.24804688 C-17.79669423 295.20330577 -17.79669423 295.20330577 -18.9375 294.0625 C-19.03892718 292.69524281 -19.07316974 291.3229045 -19.0793457 289.9519043 C-19.08989738 288.63738533 -19.08989738 288.63738533 -19.10066223 287.29631042 C-19.10482651 286.33614517 -19.10899078 285.37597992 -19.11328125 284.38671875 C-19.13653798 282.33918309 -19.1606574 280.29165709 -19.18554688 278.24414062 C-19.22020876 275.02834172 -19.2497322 271.81288399 -19.26342773 268.59692383 C-19.3148116 243.60121481 -19.3148116 243.60121481 -26.9375 220.0625 C-29.74758447 218.95011106 -31.83605872 218.34260436 -34.75 217.875 C-41.27690539 216.7019617 -46.44002706 215.32586464 -50.6953125 209.765625 C-51.14648438 208.95609375 -51.59765625 208.1465625 -52.0625 207.3125 C-52.56394531 206.43851563 -53.06539063 205.56453125 -53.58203125 204.6640625 C-54.77744424 202.36969635 -55.76205904 200.07465146 -56.75 197.6875 C-58.74304616 193.55254946 -61.40677813 192.60891972 -65.5703125 191.0390625 C-71.21178904 188.71172069 -75.41617703 184.83459898 -79.1875 180.125 C-82.03727622 176.68965333 -84.90106258 174.76391261 -88.8125 172.625 C-104.88500659 163.73596078 -113.61435975 146.9602884 -119.0625 129.9375 C-123.36360423 113.90283946 -125.47366252 96.64468999 -125.9375 80.0625 C-125.9890625 78.77085938 -126.040625 77.47921875 -126.09375 76.1484375 C-126.33939639 65.76987757 -125.32854383 58.03061951 -118.6484375 49.8515625 C-112.16631285 43.07345042 -105.04476471 41.99266271 -95.9375 41.0625 C-95.83953125 40.30066406 -95.7415625 39.53882813 -95.640625 38.75390625 C-94.37682387 30.02714155 -92.47211694 21.42050567 -85.9375 15.0625 C-81.10955354 11.53161379 -76.81070121 9.88537638 -70.875 9.1875 C-65.34184214 8.44788495 -62.94395204 6.81477193 -59.0625 2.94140625 C-43.64917646 -10.68691842 -16.78201436 -10.77054653 0 0 Z " fill="#9AC525" transform="translate(432.9375,14.9375)"/>
<path d="M0 0 C0.69538879 -0.00111786 1.39077759 -0.00223572 2.10723877 -0.00338745 C29.97465356 0.01857678 29.97465356 0.01857678 40.6875 5.375 C37.53696815 30.03605969 25.22472873 58.49390404 7.6875 76.375 C7.0275 76.375 6.3675 76.375 5.6875 76.375 C5.44644531 76.95765625 5.20539063 77.5403125 4.95703125 78.140625 C-2.45468432 91.1852444 -23.43256889 99.26234657 -37.19970703 103.09082031 C-57.82847061 108.63438881 -82.97612286 109.70944965 -102.3125 99.375 C-101.66525222 75.03848354 -94.41180096 53.05535121 -78.3125 34.375 C-77.78269531 33.70082031 -77.25289063 33.02664062 -76.70703125 32.33203125 C-58.2318491 9.47754667 -28.37564185 -0.06433528 0 0 Z " fill="#66AB32" transform="translate(547.3125,177.625)"/>
<path d="M0 0 C1.92972656 0.02320313 1.92972656 0.02320313 3.8984375 0.046875 C9.45414761 1.84054241 10.84499694 5.32972532 13.625 10.25 C14.87982572 12.2826019 16.1392311 14.31238117 17.40234375 16.33984375 C18.79197871 18.62069393 20.17897806 20.90295508 21.5625 23.1875 C21.92883545 23.79105316 22.2951709 24.39460632 22.67260742 25.01644897 C28.70876636 34.9679939 34.59277329 44.99888162 40.36303711 55.10717773 C43.62816097 60.82266894 46.95394677 66.49572365 50.34765625 72.13549805 C50.76084106 72.82309959 51.17402588 73.51070114 51.59973145 74.2191391 C52.6076853 75.89637467 53.61627631 77.57322731 54.625 79.25 C54.63308685 78.30230743 54.64117371 77.35461487 54.64950562 76.37820435 C54.72688516 67.46072305 54.81460338 58.54339587 54.91252708 49.6261158 C54.96253993 45.04130218 55.00886933 40.45651216 55.046875 35.87158203 C55.08366504 31.44946321 55.13000746 27.02753954 55.18306351 22.60558701 C55.20164098 20.91587613 55.21673646 19.22612338 55.22834396 17.53635025 C55.24514942 15.17523326 55.27416958 12.81456649 55.30615234 10.45361328 C55.30831253 9.75014771 55.31047272 9.04668213 55.31269836 8.32189941 C55.39689568 3.47810432 55.39689568 3.47810432 57.625 1.25 C60.33422801 1.05147898 62.91803179 0.97160523 65.625 1 C66.73101563 0.98839844 66.73101563 0.98839844 67.859375 0.9765625 C73.3716804 0.9966804 73.3716804 0.9966804 75.625 3.25 C75.87668228 5.28650665 75.87668228 5.28650665 75.87896729 7.84289551 C75.88460693 8.81038223 75.89024658 9.77786896 75.89605713 10.77467346 C75.89200867 11.83967575 75.88796021 12.90467804 75.88378906 14.00195312 C75.8872937 15.12069321 75.89079834 16.23943329 75.89440918 17.39207458 C75.90324113 21.10519542 75.8973721 24.81812709 75.890625 28.53125 C75.89197123 31.10192909 75.8939114 33.67260792 75.89642334 36.24328613 C75.89937659 41.63698986 75.89526009 47.03062195 75.88574219 52.42431641 C75.87485732 58.66481998 75.87838279 64.90519289 75.889395 71.1456933 C75.89955526 77.14287788 75.89849169 83.13999839 75.89263153 89.13719177 C75.89129352 91.69217446 75.89294799 94.24716046 75.89759064 96.80213928 C75.90264687 100.36753281 75.89495819 103.93267235 75.88378906 107.49804688 C75.88783752 108.56304916 75.89188599 109.62805145 75.89605713 110.72532654 C75.89041748 111.69281326 75.88477783 112.66029999 75.87896729 113.65710449 C75.87821323 114.50071281 75.87745918 115.34432114 75.87668228 116.21349335 C75.625 118.25 75.625 118.25 73.625 120.25 C70.76171875 120.76953125 70.76171875 120.76953125 67.3125 121.0625 C65.61673828 121.22685547 65.61673828 121.22685547 63.88671875 121.39453125 C60.00674866 121.22260443 58.59503816 120.74753209 55.625 118.25 C53.67415236 115.64495321 52.0596062 112.88080282 50.4375 110.0625 C49.46705558 108.42394002 48.49568317 106.78592934 47.5234375 105.1484375 C47.03842773 104.3244043 46.55341797 103.50037109 46.05371094 102.65136719 C43.95413371 99.1224127 41.75913625 95.65651429 39.5625 92.1875 C35.87282708 86.31809073 32.31127933 80.38403456 28.81956482 74.39500427 C24.86617749 67.62453044 20.83130293 60.90364369 16.79296875 54.18359375 C16.09447973 53.02049317 15.39603381 51.85736671 14.69763184 50.69421387 C13.00717638 47.87922218 11.31628969 45.06449052 9.625 42.25 C9.62944122 43.16819519 9.63388245 44.08639038 9.63845825 45.03240967 C9.67852729 53.68424535 9.70898052 62.33604988 9.72862434 70.987957 C9.7390629 75.43602201 9.75322345 79.88401036 9.77587891 84.33203125 C9.79760467 88.62436934 9.80956808 92.91663369 9.81475449 97.20902252 C9.81845072 98.84688732 9.82566849 100.48474807 9.83646011 102.12258148 C9.85097155 104.41611972 9.8529781 106.70935295 9.85205078 109.00292969 C9.856492 110.30864929 9.86093323 111.6143689 9.86550903 112.95965576 C9.64184817 116.0195044 9.25126858 117.6978513 7.625 120.25 C4.83307795 120.30380578 2.0421859 120.34357669 -0.75 120.375 C-1.94109375 120.40013672 -1.94109375 120.40013672 -3.15625 120.42578125 C-5.22992015 120.44335473 -7.30383241 120.35335168 -9.375 120.25 C-11.84858631 117.77641369 -11.62887204 117.06995033 -11.64242554 113.66383362 C-11.65095551 112.69779205 -11.65948547 111.73175049 -11.66827393 110.73643494 C-11.66736755 109.67300369 -11.66646118 108.60957245 -11.66552734 107.51391602 C-11.67224457 106.39678223 -11.67896179 105.27964844 -11.68588257 104.12866211 C-11.70494583 100.42036544 -11.70879089 96.71224892 -11.7109375 93.00390625 C-11.71735931 90.4356224 -11.72408719 87.86733929 -11.73110962 85.29905701 C-11.74310303 79.909556 -11.7468737 74.52012695 -11.74560547 69.13061523 C-11.74440359 62.89798414 -11.76551178 56.6656991 -11.7970928 50.4331556 C-11.82637438 44.44129654 -11.83358223 38.44962569 -11.83238602 32.45768547 C-11.83475261 29.90630619 -11.84363513 27.35492458 -11.85905075 24.80359077 C-11.87856366 21.24059141 -11.87293014 17.6784912 -11.86083984 14.11547852 C-11.87207886 13.0540715 -11.88331787 11.99266449 -11.89489746 10.89909363 C-11.88650848 9.93023224 -11.87811951 8.96137085 -11.86947632 7.96315002 C-11.87056585 7.1204635 -11.87165539 6.27777697 -11.87277794 5.40955448 C-11.375 3.25 -11.375 3.25 -9.56040382 1.47984219 C-6.31608971 -0.34590476 -3.68916256 -0.13254476 0 0 Z " fill="#91BB2C" transform="translate(471.375,315.75)"/>
<path d="M0 0 C1.49629634 -0.10117306 2.99393859 -0.1837509 4.4921875 -0.25 C5.59433594 -0.39308594 5.59433594 -0.39308594 6.71875 -0.5390625 C9.41020894 -0.64330915 10.93123725 -0.43756647 13.3671875 0.75 C16.22254226 4.19959921 18.30751692 7.9696492 20.38568115 11.91247559 C21.92958659 14.80289392 23.62576799 17.60051367 25.3046875 20.4140625 C26.31128206 22.13668444 27.31784975 23.85932299 28.3225708 25.58303833 C30.15435016 28.72531856 31.99126913 31.86459166 33.828125 35.00390625 C34.20295013 35.64466599 34.57777527 36.28542572 34.96395874 36.94560242 C39.58478559 44.83897217 44.25386909 52.70368884 48.92578125 60.56689453 C49.53808594 61.5979834 50.15039062 62.62907227 50.78125 63.69140625 C51.3067041 64.57513916 51.8321582 65.45887207 52.37353516 66.36938477 C55.39045322 71.48514089 58.37754803 76.61826712 61.3671875 81.75 C61.37527435 80.76472321 61.38336121 79.77944641 61.39169312 78.76431274 C61.46906915 69.49364835 61.55678648 60.22313227 61.65471458 50.95266151 C61.70472965 46.18624424 61.75105905 41.41984969 61.7890625 36.65332031 C61.82584971 32.05614194 61.87219138 27.45915139 61.92525101 22.86213303 C61.94382998 21.10543476 61.9589249 19.34869619 61.97053146 17.59193802 C61.98733431 15.13742962 62.01635397 12.68335468 62.04833984 10.22900391 C62.05050003 9.49748611 62.05266022 8.76596832 62.05488586 8.01228333 C62.13908318 2.97810432 62.13908318 2.97810432 64.3671875 0.75 C67.09415973 0.57829097 69.70625218 0.5175432 72.4296875 0.5625 C73.17541016 0.56314453 73.92113281 0.56378906 74.68945312 0.56445312 C80.22690591 0.60971841 80.22690591 0.60971841 81.3671875 1.75 C81.4694358 3.25078452 81.50237687 4.75635045 81.50762939 6.26060486 C81.51333954 7.23513107 81.51904968 8.20965729 81.52493286 9.2137146 C81.52660965 10.83063705 81.52660965 10.83063705 81.52832031 12.48022461 C81.53576767 14.17274605 81.53576767 14.17274605 81.54336548 15.89945984 C81.55802987 19.65042723 81.56479575 23.40135235 81.5703125 27.15234375 C81.57605985 29.74687197 81.58181763 32.34140017 81.58758545 34.93592834 C81.59676048 39.68549446 81.60305622 44.43504353 81.6060822 49.18461698 C81.61056567 56.18422461 81.62812469 63.18363721 81.6570828 70.18318552 C81.68126465 76.23749395 81.68902457 82.29170978 81.69075775 88.34607124 C81.69379535 90.92618433 81.70186075 93.50629638 81.71494293 96.0863781 C81.73190224 99.68786478 81.73014801 103.28887102 81.72363281 106.89038086 C81.7328476 107.96630493 81.74206238 109.042229 81.7515564 110.15075684 C81.74598724 111.12810287 81.74041809 112.10544891 81.73468018 113.1124115 C81.73688002 114.39083373 81.73688002 114.39083373 81.7391243 115.69508266 C81.61638515 116.37320539 81.49364601 117.05132811 81.3671875 117.75 C77.86057703 120.08774031 76.15225262 120.1065834 71.9921875 120.1875 C70.87070313 120.22746094 69.74921875 120.26742187 68.59375 120.30859375 C64.4650112 119.59381209 62.78025485 117.98177045 60.3671875 114.75 C58.00551304 111.35884916 55.80075594 107.88287191 53.6171875 104.375 C52.99303955 103.38258301 52.3688916 102.39016602 51.72583008 101.36767578 C47.73526214 95.00239705 43.81753543 88.59793371 39.984375 82.13671875 C35.89971444 75.26306952 31.72381752 68.44378954 27.56967163 61.61199951 C26.84601493 60.4217915 26.12246291 59.23151983 25.39901733 58.04118347 C24.42165828 56.43312129 23.4438767 54.82531594 22.46606445 53.2175293 C19.74900832 48.73885306 17.05972117 44.24344396 14.3671875 39.75 C14.36132126 40.72274872 14.35545502 41.69549744 14.34941101 42.69772339 C14.29227717 51.85070587 14.21956509 61.00344862 14.13147259 70.15618706 C14.08668385 74.86208266 14.0474468 79.56788999 14.02075195 84.27392578 C13.99480339 88.81281579 13.95446183 93.35136759 13.90400124 97.89004898 C13.88727509 99.62440927 13.87579674 101.35882813 13.86957359 103.0932579 C13.85999451 105.51679969 13.83201182 107.93946495 13.79956055 110.36279297 C13.80099564 111.08496002 13.80243073 111.80712708 13.8039093 112.55117798 C13.76591492 114.54830933 13.76591492 114.54830933 13.3671875 117.75 C9.94797203 120.02947698 8.46408573 120.07513105 4.4296875 120.125 C3.38941406 120.15335937 2.34914063 120.18171875 1.27734375 120.2109375 C-1.6328125 119.75 -1.6328125 119.75 -3.78433228 118.38917542 C-6.71153024 114.2098562 -6.17311323 110.04454863 -6.11865234 105.06225586 C-6.12244904 103.97409073 -6.12624573 102.8859256 -6.13015747 101.76478577 C-6.13757268 98.1645128 -6.11616719 94.5650451 -6.09375 90.96484375 C-6.09136624 88.46668086 -6.09046011 85.96851615 -6.0909729 83.47035217 C-6.0878433 78.23396447 -6.07174978 72.99778459 -6.04443359 67.76147461 C-6.01296734 61.70725066 -6.00243802 55.65328066 -6.0039047 49.59898084 C-6.00512532 43.77370475 -5.99469845 37.94851402 -5.97832108 32.12326241 C-5.97194504 29.64447085 -5.96801231 27.1656718 -5.96653366 24.68687248 C-5.96221028 21.22723442 -5.94473015 17.76791872 -5.92333984 14.30834961 C-5.92424622 13.2781369 -5.92515259 12.24792419 -5.92608643 11.18649292 C-5.91755646 10.24576431 -5.90902649 9.30503571 -5.90023804 8.33580017 C-5.89688635 7.51783431 -5.89353466 6.69986845 -5.89008141 5.85711575 C-5.37350237 1.62616593 -4.03975219 0.83401336 0 0 Z " fill="#303C30" transform="translate(19.6328125,316.25)"/>
<path d="M0 0 C12.51144763 9.33121665 19.47735144 22.28377805 21.84375 37.54296875 C24.44656228 59.18553114 21.89197591 81.37555001 8.37890625 99.0390625 C-0.90627685 109.90502884 -13.04529781 115.0170409 -27.12109375 116.1640625 C-36.56273475 116.55906993 -44.69871851 115.8929467 -53.49609375 112.3515625 C-54.15222656 112.09761719 -54.80835938 111.84367187 -55.484375 111.58203125 C-61.7491858 108.83254515 -66.83226187 104.30210536 -71.49609375 99.3515625 C-71.49609375 98.6915625 -71.49609375 98.0315625 -71.49609375 97.3515625 C-72.15609375 97.3515625 -72.81609375 97.3515625 -73.49609375 97.3515625 C-85.25718183 83.31413479 -86.50832908 61.75990129 -85.49609375 44.3515625 C-83.61727895 26.8746707 -76.56724328 12.90203916 -63.91796875 0.84765625 C-46.64122383 -13.06972161 -17.87789201 -11.80668298 0 0 Z M-55.49609375 20.3515625 C-64.8930374 34.50024864 -66.40496709 52.23501769 -63.30859375 68.6015625 C-61.05568821 78.00270571 -57.01363214 88.28739408 -48.44140625 93.6328125 C-39.60656224 98.16350174 -29.53410962 99.23214586 -19.984375 96.2578125 C-10.63452245 91.84684066 -5.38167247 85.81210199 -1.49609375 76.3515625 C3.57405457 61.40796745 3.99831472 40.61655341 -2.97265625 26.32421875 C-7.54669245 18.54418 -12.72315508 13.43799546 -21.30859375 10.4765625 C-34.26301184 7.1635643 -46.67789486 9.88350704 -55.49609375 20.3515625 Z " fill="#90BB29" transform="translate(649.49609375,322.6484375)"/>
<path d="M0 0 C1.20771057 -0.01418472 1.20771057 -0.01418472 2.43981934 -0.02865601 C3.74288025 -0.01954697 3.74288025 -0.01954697 5.07226562 -0.01025391 C5.97416626 -0.01312408 6.87606689 -0.01599426 7.80529785 -0.01895142 C9.71851222 -0.0209943 11.63174737 -0.01544878 13.54492188 -0.00292969 C16.43994465 0.01297174 19.33353926 -0.00269259 22.22851562 -0.02197266 C36.1340321 -0.03762152 49.96245243 0.69918918 60.72851562 10.57568359 C68.1862044 18.47606622 69.4651441 28.10222565 69.25195312 38.55615234 C68.60164731 47.66972382 64.58868872 54.25044051 57.97851562 60.38818359 C56.4244524 61.50255827 54.84437373 62.5815589 53.24023438 63.62255859 C52.03886841 64.40711426 52.03886841 64.40711426 50.81323242 65.20751953 C50.20777588 65.59713867 49.60231934 65.98675781 48.97851562 66.38818359 C51.24884473 70.83372924 53.5236505 75.27694743 55.80224609 79.71826172 C56.57327179 81.22254597 57.34316962 82.72740896 58.11181641 84.23291016 C62.66485762 93.14853858 67.34221876 101.93239799 72.44726562 110.54589844 C74.74745611 114.81548033 74.74745611 114.81548033 74.97851562 117.38818359 C72.97851562 119.38818359 72.97851562 119.38818359 71.00732422 119.61523438 C69.82904053 119.59952393 69.82904053 119.59952393 68.62695312 119.58349609 C67.35078125 119.57382812 67.35078125 119.57382812 66.04882812 119.56396484 C64.71464844 119.53882813 64.71464844 119.53882813 63.35351562 119.51318359 C62.45632813 119.50416016 61.55914062 119.49513672 60.63476562 119.48583984 C58.41574977 119.46223329 56.19726485 119.42930669 53.97851562 119.38818359 C49.52430085 111.9931209 45.5036071 104.56675139 42.04101562 96.65380859 C41.02770337 94.40613572 40.00968297 92.16064467 38.99072266 89.91552734 C38.31024917 88.38454407 37.6499918 86.84443031 37.00927734 85.29638672 C33.70468129 76.4980713 33.70468129 76.4980713 27.01708984 70.50024414 C22.34730408 69.27835719 17.77841634 69.18646997 12.97851562 69.38818359 C12.98295685 69.98509003 12.98739807 70.58199646 12.99197388 71.19699097 C13.03612143 77.3933473 13.06634622 83.58965917 13.08837891 89.78613281 C13.09845454 92.10060439 13.11211537 94.41506318 13.12939453 96.72949219 C13.15357427 100.05065052 13.16498293 103.371641 13.17382812 106.69287109 C13.1841507 107.73248993 13.19447327 108.77210876 13.20510864 109.8432312 C13.2052597 110.80407623 13.20541077 111.76492126 13.20556641 112.75488281 C13.21000763 113.60315643 13.21444885 114.45143005 13.21902466 115.32540894 C12.97851562 117.38818359 12.97851562 117.38818359 10.97851562 119.38818359 C8.450589 119.61373441 6.06795986 119.7125695 3.54101562 119.70068359 C2.51911133 119.72485352 2.51911133 119.72485352 1.4765625 119.74951172 C-3.51811047 119.75440366 -3.51811047 119.75440366 -5.71666908 118.15488434 C-7.39573099 115.88145918 -7.39858719 114.57005188 -7.4024353 111.75769043 C-7.41089478 110.80710251 -7.41935425 109.85651459 -7.42807007 108.87712097 C-7.42199738 107.83598648 -7.41592468 106.79485199 -7.40966797 105.72216797 C-7.41492493 104.62439529 -7.42018188 103.52662262 -7.42559814 102.39558411 C-7.4388297 98.75755696 -7.43004859 95.11996539 -7.41992188 91.48193359 C-7.42194169 88.95991939 -7.42485236 86.43790575 -7.42861938 83.91589355 C-7.43304703 78.62648426 -7.42688248 73.33723189 -7.41259766 68.04785156 C-7.39627078 61.93168936 -7.40155922 55.81582716 -7.41807687 49.69967222 C-7.43332767 43.81727822 -7.43171799 37.93497749 -7.42293167 32.05256653 C-7.42092635 29.54864968 -7.42340053 27.04472521 -7.43037033 24.54081726 C-7.43796484 21.04506976 -7.42640802 17.5499033 -7.40966797 14.05419922 C-7.41574066 13.01306473 -7.42181335 11.97193024 -7.42807007 10.89924622 C-7.4196106 9.94865829 -7.41115112 8.99807037 -7.4024353 8.01867676 C-7.40130423 7.19203773 -7.40017315 6.36539871 -7.3990078 5.51371002 C-6.63928885 1.23635235 -4.0691486 0.01375104 0 0 Z M12.97851562 16.38818359 C12.95386635 21.63923802 12.93567994 26.89025905 12.92358398 32.14135742 C12.91854344 33.9291238 12.91171108 35.71688604 12.90307617 37.50463867 C12.89099832 40.06869528 12.88528468 42.63269757 12.88085938 45.19677734 C12.87569809 46.00094589 12.8705368 46.80511444 12.86521912 47.63365173 C12.86502348 49.55220074 12.9164958 51.47063728 12.97851562 53.38818359 C15.23685526 55.64652323 20.45042766 54.62092953 23.47851562 54.63818359 C24.3525 54.65880859 25.22648437 54.67943359 26.12695312 54.70068359 C32.49595292 54.73848181 39.44946295 54.29468517 44.57006836 50.07739258 C48.37570892 45.83133869 49.774883 41.58741593 50.29101562 36.01318359 C49.67037175 28.8137147 47.60639341 24.31861275 42.08789062 19.61474609 C35.84587026 15.98512685 29.55526909 16.13188727 22.54101562 16.26318359 C21.61869141 16.27220703 20.69636719 16.28123047 19.74609375 16.29052734 C17.48995754 16.31390699 15.23437879 16.34667443 12.97851562 16.38818359 Z " fill="#2D3B2F" transform="translate(327.021484375,316.61181640625)"/>
<path d="M0 0 C0.68513672 0.00773437 1.37027344 0.01546875 2.07617188 0.0234375 C2.75744141 0.01570313 3.43871094 0.00796875 4.140625 0 C7.8527663 0.01454316 9.4745656 0.16403332 12.63867188 2.2734375 C12.93929126 4.82293414 13.04507724 7.13322671 13.0234375 9.68554688 C13.02881027 10.45006165 13.03418304 11.21457642 13.03971863 12.0022583 C13.04951769 13.66645273 13.05243437 15.33069838 13.04936218 16.99491882 C13.04488992 19.63606097 13.05887145 22.27653082 13.07775879 24.91760254 C13.11461401 30.53620293 13.128242 36.15473407 13.13867188 41.7734375 C13.15077596 48.25844214 13.17255997 54.743122 13.21867371 61.22798157 C13.23216021 63.81695608 13.22808596 66.40551147 13.2232666 68.99450684 C13.25802195 79.42412444 13.37997988 90.03384118 20.63867188 98.2734375 C27.30257124 102.54657709 33.79246708 103.98118226 41.63867188 103.2734375 C46.51956405 102.17291423 51.26769341 100.74775791 55.63867188 98.2734375 C56.79789315 96.54200896 56.79789315 96.54200896 57.63867188 94.2734375 C58.15429688 93.1596875 58.66992188 92.0459375 59.20117188 90.8984375 C61.50371531 85.09202363 61.78960299 79.56101702 61.81225586 73.37207031 C61.82228638 72.21977684 61.82228638 72.21977684 61.83251953 71.04420471 C61.84650541 69.38605542 61.85841965 67.72788761 61.86846733 66.06970978 C61.88494876 63.44742479 61.90818435 60.82527901 61.93336487 58.20306396 C62.00397923 50.7511695 62.06446452 43.29922216 62.11547852 35.84716797 C62.14720108 31.28199078 62.18844419 26.71698123 62.2356739 22.15193939 C62.25171695 20.41198471 62.26402784 18.67199156 62.2725811 16.93198395 C62.28468432 14.50689031 62.30880755 12.08219475 62.33569336 9.65722656 C62.3362825 8.93513504 62.33687164 8.21304352 62.33747864 7.46907043 C62.41076063 2.50134875 62.41076063 2.50134875 64.63867188 0.2734375 C67.34789988 0.07491648 69.93170367 -0.00495727 72.63867188 0.0234375 C73.7446875 0.01183594 73.7446875 0.01183594 74.87304688 0 C80.38535228 0.0201179 80.38535228 0.0201179 82.63867188 2.2734375 C82.89263916 5.26702881 82.89263916 5.26702881 82.89746094 9.16308594 C82.90096558 9.87240768 82.90447021 10.58172943 82.90808105 11.31254578 C82.91691554 13.66939969 82.91103584 16.02595523 82.90429688 18.3828125 C82.90564483 20.02793434 82.90758645 21.67305579 82.91009521 23.31817627 C82.91305025 26.77839931 82.90874333 30.23851938 82.89941406 33.69873047 C82.88812637 38.09619425 82.89450782 42.493411 82.90655899 46.89086533 C82.91385959 50.29705593 82.91145067 53.70319013 82.90630341 57.10938263 C82.90498382 58.7278064 82.9065542 60.34623556 82.91126251 61.96465302 C82.95173183 79.81639794 82.37717412 97.48859797 69.22460938 111.078125 C57.79481241 120.78136653 44.09034606 122.23688245 29.63867188 121.2734375 C17.95062735 119.50920436 7.93405358 114.78047176 0.63867188 105.2734375 C-7.59120539 91.49614851 -7.67094349 76.82634359 -7.62695312 61.23046875 C-7.62830345 59.52748052 -7.63024703 57.82449266 -7.63275146 56.12150574 C-7.63567664 52.58251207 -7.63148403 49.04362036 -7.62207031 45.50463867 C-7.6105806 40.96394571 -7.61731114 36.42348675 -7.62921524 31.88280201 C-7.63642289 28.38018509 -7.63415265 24.87762428 -7.62895966 21.37500572 C-7.62762508 19.69921529 -7.62926418 18.02341977 -7.63391876 16.34763527 C-7.63897643 14.01913393 -7.63128923 11.69102106 -7.62011719 9.36254883 C-7.62416565 8.6701561 -7.62821411 7.97776337 -7.63238525 7.26438904 C-7.5773665 1.10022527 -6.11646449 0.02400967 0 0 Z " fill="#313D31" transform="translate(131.361328125,316.7265625)"/>
<path d="M0 0 C1.17461792 -0.00630432 2.34923584 -0.01260864 3.55944824 -0.019104 C5.47038269 -0.01303131 5.47038269 -0.01303131 7.41992188 -0.00683594 C8.72191528 -0.00874939 10.02390869 -0.01066284 11.36535645 -0.01263428 C14.12268816 -0.01558485 16.87989036 -0.01129018 19.63720703 -0.00195312 C23.17494261 0.00944153 26.71237474 0.00288168 30.25009918 -0.00909805 C33.61923121 -0.01805488 36.98828121 -0.01178734 40.35742188 -0.00683594 C41.63137817 -0.0108844 42.90533447 -0.01493286 44.21789551 -0.019104 C45.39251343 -0.01279968 46.56713135 -0.00649536 47.77734375 0 C48.81499878 0.00159119 49.85265381 0.00318237 50.92175293 0.00482178 C53.38867188 0.25878906 53.38867188 0.25878906 55.38867188 2.25878906 C55.61914062 5.00878906 55.61914062 5.00878906 55.57617188 8.25878906 C55.56972656 9.33128906 55.56328125 10.40378906 55.55664062 11.50878906 C55.38867188 14.25878906 55.38867188 14.25878906 54.38867188 16.25878906 C49.89894069 17.63953255 45.237451 17.38624143 40.58789062 17.35644531 C39.75151566 17.35503036 38.91514069 17.35361542 38.05342102 17.35215759 C35.39430088 17.3465809 32.73526637 17.33403271 30.07617188 17.32128906 C28.26823039 17.31627105 26.46028757 17.31170867 24.65234375 17.30761719 C20.23106063 17.29747198 15.80996159 17.27789209 11.38867188 17.25878906 C11.38867188 28.47878906 11.38867188 39.69878906 11.38867188 51.25878906 C15.57683594 51.22398437 15.57683594 51.22398437 19.84960938 51.18847656 C22.54687037 51.17288949 25.2441264 51.16073938 27.94140625 51.14892578 C29.81935869 51.13885372 31.69729541 51.12519545 33.57519531 51.10791016 C36.27087278 51.08371453 38.96634333 51.07231823 41.66210938 51.06347656 C42.5048642 51.05315399 43.34761902 51.04283142 44.21591187 51.03219604 C46.27488435 51.03179762 48.33335122 51.13621319 50.38867188 51.25878906 C52.38867188 53.25878906 52.38867188 53.25878906 52.65429688 56.00878906 C52.64914062 57.08128906 52.64398437 58.15378906 52.63867188 59.25878906 C52.64640625 60.86753906 52.64640625 60.86753906 52.65429688 62.50878906 C52.38867188 65.25878906 52.38867188 65.25878906 50.38867188 67.25878906 C47.4477045 67.43418342 44.60213839 67.49011282 41.66210938 67.45410156 C40.79929352 67.45127167 39.93647766 67.44844177 39.04751587 67.44552612 C36.28609468 67.43431239 33.52499538 67.4092059 30.76367188 67.38378906 C28.89388489 67.37376079 27.02409282 67.36463468 25.15429688 67.35644531 C20.56563079 67.33436918 15.97720594 67.29983141 11.38867188 67.25878906 C11.39533371 67.86600296 11.40199554 68.47321686 11.40885925 69.09883118 C11.47514074 75.40885126 11.52044251 81.71877274 11.5534668 88.02905273 C11.56856935 90.38521337 11.58905279 92.74134583 11.61499023 95.09741211 C11.65130844 98.48070218 11.66838354 101.86362114 11.68164062 105.24707031 C11.69712448 106.30340164 11.71260834 107.35973297 11.7285614 108.44807434 C11.72878799 109.42886459 11.72901459 110.40965485 11.72924805 111.42016602 C11.73590988 112.28398392 11.74257172 113.14780182 11.74943542 114.03779602 C11.30577052 116.76916028 10.61350472 117.64952724 8.38867188 119.25878906 C5.10351562 119.58691406 5.10351562 119.58691406 1.32617188 119.50878906 C0.07707031 119.49332031 -1.17203125 119.47785156 -2.45898438 119.46191406 C-5.61132812 119.25878906 -5.61132812 119.25878906 -7.61132812 118.25878906 C-8.97000502 86.47442203 -8.94387464 54.67994047 -8.29193115 22.87664795 C-8.25503189 21.05643305 -8.22102861 19.236157 -8.19000244 17.41583252 C-8.14529573 14.90219899 -8.08749713 12.38923263 -8.02539062 9.87597656 C-8.01382935 9.12922668 -8.00226807 8.38247681 -7.99035645 7.61309814 C-7.79946921 1.07317771 -6.37137518 0.00977015 0 0 Z " fill="#333F32" transform="translate(698.611328125,316.7412109375)"/>
<path d="M0 0 C1.11433914 0.00303635 1.11433914 0.00303635 2.25119019 0.00613403 C3.41942825 0.00350555 3.41942825 0.00350555 4.61126709 0.00082397 C7.19829505 -0.00359493 9.78525522 -0.00065643 12.37228394 0.00271606 C14.16207899 0.00204304 15.95187396 0.00107302 17.7416687 -0.00018311 C21.49778105 -0.00166013 25.25386966 0.00049462 29.00997925 0.00515747 C33.83578887 0.01085476 38.66154288 0.00757578 43.48735046 0.00158501 C47.18466616 -0.00202048 50.88196858 -0.00088208 54.57928467 0.0017128 C56.35917162 0.0023821 58.13905975 0.00155353 59.91894531 -0.00076675 C62.40212216 -0.00329309 64.88520768 0.00054702 67.36837769 0.00613403 C68.11127045 0.0041098 68.85416321 0.00208557 69.61956787 0 C74.69552132 0.02126595 74.69552132 0.02126595 75.80978394 1.13552856 C75.96157772 3.44454553 76.03159515 5.75919925 76.05978394 8.07302856 C76.08556519 9.340177 76.11134644 10.60732544 76.13790894 11.91287231 C76.02962769 12.97634888 75.92134644 14.03982544 75.80978394 15.13552856 C72.22310081 17.52665065 70.64581824 17.36933883 66.39181519 17.33084106 C65.1382019 17.32439575 63.88458862 17.31795044 62.59298706 17.31130981 C60.62748901 17.2861731 60.62748901 17.2861731 58.62228394 17.26052856 C57.28700407 17.25049495 55.95171704 17.24136976 54.61642456 17.23318481 C51.34736379 17.20958149 48.07866366 17.17665451 44.80978394 17.13552856 C44.81422516 18.38389496 44.81866638 19.63226135 44.82324219 20.91845703 C44.86371873 32.66130712 44.89373482 44.40414312 44.91340828 56.14704704 C44.92386246 62.18474094 44.9380514 68.2223787 44.96066284 74.26004028 C44.98233303 80.08255696 44.99434024 85.90501951 44.99953842 91.72757339 C45.00324468 93.95321633 45.01048165 96.17885617 45.02124405 98.40447617 C45.03568156 101.51264691 45.03776513 104.62059161 45.03683472 107.72879028 C45.04402527 108.65667358 45.05121582 109.58455688 45.05862427 110.54055786 C45.05587494 111.3847226 45.05312561 112.22888733 45.05029297 113.09863281 C45.05213655 113.83422361 45.05398014 114.56981441 45.05587959 115.32769585 C44.80978394 117.13552856 44.80978394 117.13552856 42.80978394 119.13552856 C40.26749235 119.30754141 37.84828398 119.36810473 35.30978394 119.32302856 C34.6201355 119.32238403 33.93048706 119.3217395 33.21994019 119.32107544 C28.09089443 119.27608381 28.09089443 119.27608381 25.80978394 118.13552856 C24.90178677 115.41153707 24.68594811 113.8513055 24.68952942 111.05430603 C24.68815475 110.22559494 24.68678009 109.39688385 24.68536377 108.5430603 C24.68895905 107.63747375 24.69255432 106.73188721 24.69625854 105.79885864 C24.69611252 104.84257065 24.69596649 103.88628265 24.69581604 102.90101624 C24.6965135 99.73567447 24.70429813 96.57039132 24.71212769 93.40505981 C24.71399246 91.21216362 24.71541608 89.019267 24.71641541 86.82637024 C24.72023592 81.05105441 24.73006226 75.27576367 24.74111938 69.50045776 C24.7513435 63.60863586 24.75591517 57.71680991 24.76095581 51.82498169 C24.77168492 40.26181961 24.78875578 28.69867617 24.80978394 17.13552856 C24.01282104 17.1460022 23.21585815 17.15647583 22.39474487 17.16726685 C18.78312332 17.20884628 15.17155215 17.23486118 11.55978394 17.26052856 C10.30552612 17.27728638 9.05126831 17.29404419 7.75900269 17.31130981 C6.55372925 17.31775513 5.34845581 17.32420044 4.10665894 17.33084106 C2.44135132 17.34655151 2.44135132 17.34655151 0.74240112 17.36257935 C-2.12972548 17.1402119 -3.76245342 16.62834432 -6.19021606 15.13552856 C-6.21707018 12.82309064 -6.23654447 10.51056586 -6.25271606 8.19802856 C-6.26431763 6.91025513 -6.27591919 5.62248169 -6.28787231 4.29568481 C-6.13074149 -0.78906872 -4.62300727 0.01936831 0 0 Z " fill="#334034" transform="translate(232.19021606445313,316.8644714355469)"/>
<path d="M0 0 C10.28304538 -0.02312376 20.56608462 -0.04091525 30.84915066 -0.05181217 C35.6234828 -0.05704093 40.39779721 -0.06413844 45.17211914 -0.07543945 C49.77566262 -0.0862686 54.37918899 -0.09227689 58.98274422 -0.09487724 C60.74309623 -0.09673144 62.50344726 -0.10035196 64.26379204 -0.10573006 C66.72072277 -0.11294086 69.17758195 -0.11399093 71.63452148 -0.11352539 C72.73719109 -0.1189183 72.73719109 -0.1189183 73.86213684 -0.12442017 C78.88594784 -0.11405216 78.88594784 -0.11405216 80 1 C80.15179378 3.30901696 80.22181122 5.62367069 80.25 7.9375 C80.27578125 9.20464844 80.3015625 10.47179687 80.328125 11.77734375 C80.21984375 12.84082031 80.1115625 13.90429688 80 15 C76.41331687 17.39112209 74.83603431 17.23381027 70.58203125 17.1953125 C69.32841797 17.18886719 68.07480469 17.18242187 66.78320312 17.17578125 C64.81770508 17.15064453 64.81770508 17.15064453 62.8125 17.125 C61.47722013 17.11496639 60.14193311 17.1058412 58.80664062 17.09765625 C55.53757985 17.07405292 52.26887972 17.04112594 49 17 C49.01252808 17.9305571 49.02505615 18.8611142 49.03796387 19.81987 C49.15715862 28.68714614 49.27484936 37.55444122 49.39115143 46.42175579 C49.45095688 50.97803933 49.51125126 55.5343152 49.57275391 60.09057617 C49.69961112 69.51248324 49.81902712 78.93437459 49.92019653 88.35659599 C49.97092014 92.93835025 50.0450671 97.51893701 50.13671875 102.10009766 C50.16448019 104.01073616 50.19187011 105.92138014 50.21875 107.83203125 C50.24199341 108.65394455 50.26523682 109.47585785 50.28918457 110.32267761 C50.33914471 115.48616543 50.33914471 115.48616543 48.68945312 117.9855957 C45.88645574 119.66860931 43.21751819 119.39510949 40 119.375 C38.7625 119.38273437 37.525 119.39046875 36.25 119.3984375 C33 119 33 119 31.31942272 117.73254681 C29.69739047 115.60264048 29.6291394 114.53633787 29.63923645 111.8808136 C29.63511246 111.04368835 29.63098846 110.20656311 29.6267395 109.34407043 C29.63752533 108.42913315 29.64831116 107.51419586 29.65942383 106.5715332 C29.65876671 105.12247086 29.65876671 105.12247086 29.65809631 103.64413452 C29.6601889 100.44614559 29.68354239 97.24867877 29.70703125 94.05078125 C29.71262553 91.83546739 29.71689642 89.62014983 29.71989441 87.40483093 C29.73135639 81.57023903 29.76083538 75.73587068 29.79400635 69.90136719 C29.82467797 63.94924952 29.83839353 57.99709577 29.85351562 52.04492188 C29.88570365 40.36318296 29.93691647 28.68161006 30 17 C29.16750732 17.01047363 28.33501465 17.02094727 27.47729492 17.03173828 C24.38550844 17.06584442 21.29381792 17.09091076 18.2019043 17.10986328 C16.20680382 17.12485495 14.21179054 17.15026731 12.21679688 17.17578125 C10.96318359 17.18222656 9.70957031 17.18867188 8.41796875 17.1953125 C7.26063232 17.20578613 6.1032959 17.21625977 4.91088867 17.22705078 C2 17 2 17 -1 15 C-1.58203125 13.046875 -1.58203125 13.046875 -1.8125 10.75 C-1.90144531 10.00234375 -1.99039063 9.2546875 -2.08203125 8.484375 C-1.98003956 5.39548383 -1.01567169 2.90419793 0 0 Z " fill="#344033" transform="translate(803,317)"/>
<path d="M0 0 C1.19818772 2.39637543 1.12835028 3.87908909 1.13371277 6.55493164 C1.13797775 7.51400421 1.14224274 8.47307678 1.14663696 9.46121216 C1.14618378 10.51686371 1.14573059 11.57251526 1.14526367 12.66015625 C1.14862228 13.76914276 1.1519809 14.87812927 1.15544128 16.02072144 C1.16497184 19.70132555 1.16689535 23.3818843 1.16796875 27.0625 C1.17117949 29.61075866 1.17454342 32.15901713 1.17805481 34.70727539 C1.18405109 40.05387881 1.18593686 45.40046518 1.18530273 50.74707031 C1.18470151 56.93303408 1.19526185 63.11891077 1.2110464 69.30485249 C1.225677 75.24969543 1.2292914 81.19451165 1.22869301 87.13937378 C1.2298771 89.67203121 1.23432271 92.20468921 1.24202538 94.73733521 C1.2517688 98.27157933 1.24896979 101.80559635 1.24291992 105.33984375 C1.24853943 106.3954953 1.25415894 107.45114685 1.25994873 108.53878784 C1.25575424 109.49786041 1.25155975 110.45693298 1.24723816 111.44506836 C1.24778293 112.28130234 1.24832769 113.11753632 1.24888897 113.97911072 C1 116 1 116 -1 118 C-3.8706466 118.1721221 -6.63252342 118.23223075 -9.5 118.1875 C-10.28503906 118.18685547 -11.07007813 118.18621094 -11.87890625 118.18554688 C-17.71906304 118.14046848 -17.71906304 118.14046848 -20 117 C-20.07001752 102.0404421 -20.12295249 87.08089687 -20.15543652 72.1212101 C-20.17091895 65.17547765 -20.19203455 58.22984688 -20.22631836 51.28417969 C-20.25936323 44.58633392 -20.27683304 37.88861583 -20.28463173 31.19068527 C-20.29019228 28.63010363 -20.30104998 26.06952805 -20.31719017 23.50899124 C-20.33883837 19.93376205 -20.34197218 16.35897515 -20.34057617 12.78369141 C-20.351362 11.71554703 -20.36214783 10.64740265 -20.3732605 9.54689026 C-20.36913651 8.57651321 -20.36501251 7.60613617 -20.36076355 6.60635376 C-20.36352893 5.7601478 -20.36629431 4.91394184 -20.36914349 4.04209328 C-20.24732614 3.3682025 -20.12550879 2.69431171 -20 2 C-14.00600756 -1.99599496 -6.87196616 -1.34629661 0 0 Z " fill="#82B42F" transform="translate(436,318)"/>
<path d="M0 0 C0.73734375 0.00773437 1.4746875 0.01546875 2.234375 0.0234375 C3.34039063 0.01183594 3.34039063 0.01183594 4.46875 0 C9.9810554 0.0201179 9.9810554 0.0201179 12.234375 2.2734375 C12.48885059 4.30994415 12.48885059 4.30994415 12.49507141 6.86633301 C12.50215622 7.83381973 12.50924103 8.80130646 12.51654053 9.79811096 C12.51406311 10.86311325 12.51158569 11.92811554 12.5090332 13.02539062 C12.5166996 14.70350075 12.5166996 14.70350075 12.52452087 16.41551208 C12.5384677 20.12862435 12.53745641 23.84155209 12.53515625 27.5546875 C12.53904009 30.12536692 12.5433741 32.6960457 12.54814148 35.26672363 C12.55561446 40.66042428 12.55544191 46.05405284 12.55004883 51.44775391 C12.54400512 57.68830076 12.55632814 63.92862238 12.5776189 70.1691308 C12.59732952 76.16632399 12.60041227 82.1633988 12.59688377 88.16062927 C12.59739888 90.71561716 12.60267185 93.27060851 12.61269569 95.82557678 C12.62496737 99.39105833 12.61832428 102.95601192 12.60668945 106.52148438 C12.61815506 108.11898781 12.61815506 108.11898781 12.62985229 109.74876404 C12.62283798 110.71625076 12.61582367 111.68373749 12.6085968 112.68054199 C12.60876454 113.52415031 12.60893229 114.36775864 12.60910511 115.23693085 C12.42361371 116.24500164 12.42361371 116.24500164 12.234375 117.2734375 C8.56674183 119.71852628 6.60005725 119.57229474 2.234375 119.5859375 C0.378125 119.61107422 0.378125 119.61107422 -1.515625 119.63671875 C-4.765625 119.2734375 -4.765625 119.2734375 -6.44536114 118.04293156 C-8.15165343 115.75605985 -8.14041685 114.43693976 -8.1398468 111.59825134 C-8.14686111 110.63780411 -8.15387543 109.67735687 -8.16110229 108.68780518 C-8.15345856 107.6357489 -8.14581482 106.58369263 -8.13793945 105.49975586 C-8.14159012 104.39062332 -8.14524078 103.28149078 -8.14900208 102.13874817 C-8.15712466 98.46343799 -8.14348371 94.7885663 -8.12890625 91.11328125 C-8.12838789 88.56645203 -8.12890466 86.0196224 -8.13041687 83.47279358 C-8.13032707 78.13210598 -8.12021853 72.79157312 -8.10180664 67.45092773 C-8.08062811 61.27231167 -8.0771314 55.09388143 -8.0833686 48.91523641 C-8.08905839 42.97517879 -8.08331772 37.03517728 -8.07219505 31.0951252 C-8.0683354 28.56526516 -8.06719799 26.03539952 -8.0687809 23.50553703 C-8.0691501 19.97615639 -8.05657228 16.44706237 -8.0402832 12.91772461 C-8.04276062 11.8636441 -8.04523804 10.8095636 -8.04779053 9.72354126 C-8.04070572 8.76591385 -8.03362091 7.80828644 -8.02632141 6.82164001 C-8.02426854 5.98670485 -8.02221567 5.1517697 -8.02010059 4.29153347 C-7.41868054 -0.47797456 -4.01544828 0.01465492 0 0 Z " fill="#344135" transform="translate(778.765625,316.7265625)"/>
<path d="M0 0 C204.93 0 409.86 0 621 0 C619.12774634 3.74450732 618.46708807 4.70657061 615.3046875 7.015625 C614.58925781 7.54414063 613.87382813 8.07265625 613.13671875 8.6171875 C612.01716797 9.42542969 612.01716797 9.42542969 610.875 10.25 C610.12089844 10.80429687 609.36679687 11.35859375 608.58984375 11.9296875 C606.73177256 13.29384103 604.86851184 14.65020178 603 16 C602.34 15.67 601.68 15.34 601 15 C601 14.34 601 13.68 601 13 C601.99 13 602.98 13 604 13 C604 12.34 604 11.68 604 11 C604.99 11 605.98 11 607 11 C607 10.01 607 9.02 607 8 C608.65 7.67 610.3 7.34 612 7 C612.33 6.01 612.66 5.02 613 4 C614.5625 2.3125 614.5625 2.3125 616 1 C614.6218235 1.04102089 614.6218235 1.04102089 613.21580505 1.08287048 C582.86035036 1.97124634 552.50684481 2.32847626 522.13994074 2.54744434 C520.03951365 2.56266659 517.9390892 2.57821748 515.83866501 2.59383392 C403.64314125 3.42377704 291.43170196 3.33566894 4 2 C4.33 2.66 4.66 3.32 5 4 C1.125 2.25 1.125 2.25 0 0 Z " fill="#68A23A" transform="translate(86,492)"/>
<path d="M0 0 C204.93 0 409.86 0 621 0 C619.12774634 3.74450732 618.46708807 4.70657061 615.3046875 7.015625 C614.58925781 7.54414063 613.87382813 8.07265625 613.13671875 8.6171875 C612.01716797 9.42542969 612.01716797 9.42542969 610.875 10.25 C610.12089844 10.80429687 609.36679687 11.35859375 608.58984375 11.9296875 C606.73177256 13.29384103 604.86851184 14.65020178 603 16 C602.34 15.67 601.68 15.34 601 15 C601 14.34 601 13.68 601 13 C601.99 13 602.98 13 604 13 C604 12.34 604 11.68 604 11 C604.99 11 605.98 11 607 11 C607 10.01 607 9.02 607 8 C608.65 7.67 610.3 7.34 612 7 C612.33 6.01 612.66 5.02 613 4 C614.485 2.515 614.485 2.515 616 1 C313.06 1.495 313.06 1.495 4 2 C4.33 2.66 4.66 3.32 5 4 C1.125 2.25 1.125 2.25 0 0 Z " fill="#97BE75" transform="translate(86,492)"/>
<path d="M0 0 C0.69738281 0.06123047 1.39476562 0.12246094 2.11328125 0.18554688 C3.82689681 0.33812908 5.5386995 0.51083589 7.25 0.6875 C7.25 1.0175 7.25 1.3475 7.25 1.6875 C1.97 1.6875 -3.31 1.6875 -8.75 1.6875 C-8.42 39.6375 -8.09 77.5875 -7.75 116.6875 C-3.46 116.6875 0.83 116.6875 5.25 116.6875 C5.58 89.6275 5.91 62.5675 6.25 34.6875 C6.91 34.6875 7.57 34.6875 8.25 34.6875 C9.78064939 37.30720793 11.29969748 39.93251643 12.8125 42.5625 C13.25013672 43.30886719 13.68777344 44.05523437 14.13867188 44.82421875 C14.54794922 45.53964844 14.95722656 46.25507813 15.37890625 46.9921875 C15.95233765 47.9819458 15.95233765 47.9819458 16.53735352 48.99169922 C16.77252686 49.55131348 17.0077002 50.11092773 17.25 50.6875 C16.92 51.3475 16.59 52.0075 16.25 52.6875 C13.94 49.0575 11.63 45.4275 9.25 41.6875 C9.25444122 42.60569519 9.25888245 43.52389038 9.26345825 44.46990967 C9.30352729 53.12174535 9.33398052 61.77354988 9.35362434 70.425457 C9.3640629 74.87352201 9.37822345 79.32151036 9.40087891 83.76953125 C9.42260467 88.06186934 9.43456808 92.35413369 9.43975449 96.64652252 C9.44345072 98.28438732 9.45066849 99.92224807 9.46146011 101.56008148 C9.47597155 103.85361972 9.4779781 106.14685295 9.47705078 108.44042969 C9.481492 109.74614929 9.48593323 111.0518689 9.49050903 112.39715576 C9.26684817 115.4570044 8.87626858 117.1353513 7.25 119.6875 C4.45807795 119.74130578 1.6671859 119.78107669 -1.125 119.8125 C-2.31609375 119.83763672 -2.31609375 119.83763672 -3.53125 119.86328125 C-5.60492015 119.88085473 -7.67883241 119.79085168 -9.75 119.6875 C-12.22358631 117.21391369 -12.00387204 116.50745033 -12.01742554 113.10133362 C-12.02595551 112.13529205 -12.03448547 111.16925049 -12.04327393 110.17393494 C-12.04236755 109.11050369 -12.04146118 108.04707245 -12.04052734 106.95141602 C-12.04724457 105.83428223 -12.05396179 104.71714844 -12.06088257 103.56616211 C-12.07994583 99.85786544 -12.08379089 96.14974892 -12.0859375 92.44140625 C-12.09235931 89.8731224 -12.09908719 87.30483929 -12.10610962 84.73655701 C-12.11810303 79.347056 -12.1218737 73.95762695 -12.12060547 68.56811523 C-12.11940359 62.33548414 -12.14051178 56.1031991 -12.1720928 49.8706556 C-12.20137438 43.87879654 -12.20858223 37.88712569 -12.20738602 31.89518547 C-12.20975261 29.34380619 -12.21863513 26.79242458 -12.23405075 24.24109077 C-12.25356366 20.67809141 -12.24793014 17.1159912 -12.23583984 13.55297852 C-12.24707886 12.4915715 -12.25831787 11.43016449 -12.26989746 10.33659363 C-12.26150848 9.36773224 -12.25311951 8.39887085 -12.24447632 7.40065002 C-12.24556585 6.5579635 -12.24665539 5.71527697 -12.24777794 4.84705448 C-11.75 2.6875 -11.75 2.6875 -9.94858742 0.8975668 C-6.66964071 -0.9071122 -3.59129128 -0.38356892 0 0 Z " fill="#B0CA6E" transform="translate(471.75,316.3125)"/>
<path d="M0 0 C1.20139488 2.40278975 1.12320302 3.88525367 1.12025452 6.56838989 C1.12162918 7.53035278 1.12300385 8.49231567 1.12442017 9.48342896 C1.12082489 10.5422226 1.11722961 11.60101624 1.11352539 12.69189453 C1.11367142 13.80409363 1.11381744 14.91629272 1.1139679 16.06219482 C1.1132691 19.7524203 1.10547824 23.4425958 1.09765625 27.1328125 C1.09579195 29.68586194 1.0943681 32.23891174 1.09336853 34.79196167 C1.08993553 40.83386916 1.08204747 46.87575508 1.07201904 52.91765392 C1.06085045 59.79543876 1.05534557 66.67322445 1.05032361 73.55101609 C1.03986466 87.7006874 1.02226986 101.85034271 1 116 C0.01 116.495 0.01 116.495 -1 117 C-2.53361372 102.66511031 -3.29619911 88.53717579 -3.1875 74.125 C-3.18057487 72.21525211 -3.174075 70.30550264 -3.16796875 68.39575195 C-3.06862731 46.26008071 -2.55017178 24.12831889 -2 2 C-4.29199177 2.14063135 -6.58359186 2.28765943 -8.875 2.4375 C-10.15117187 2.51871094 -11.42734375 2.59992188 -12.7421875 2.68359375 C-15.88300152 2.79206027 -15.88300152 2.79206027 -18 4 C-18 41.29 -18 78.58 -18 117 C-18.66 117 -19.32 117 -20 117 C-20.07001752 102.0404421 -20.12295249 87.08089687 -20.15543652 72.1212101 C-20.17091895 65.17547765 -20.19203455 58.22984688 -20.22631836 51.28417969 C-20.25936323 44.58633392 -20.27683304 37.88861583 -20.28463173 31.19068527 C-20.29019228 28.63010363 -20.30104998 26.06952805 -20.31719017 23.50899124 C-20.33883837 19.93376205 -20.34197218 16.35897515 -20.34057617 12.78369141 C-20.351362 11.71554703 -20.36214783 10.64740265 -20.3732605 9.54689026 C-20.36913651 8.57651321 -20.36501251 7.60613617 -20.36076355 6.60635376 C-20.36352893 5.7601478 -20.36629431 4.91394184 -20.36914349 4.04209328 C-20.24732614 3.3682025 -20.12550879 2.69431171 -20 2 C-14.00600756 -1.99599496 -6.87196616 -1.34629661 0 0 Z " fill="#B8D287" transform="translate(436,318)"/>
<path d="M0 0 C0.73734375 0.00773437 1.4746875 0.01546875 2.234375 0.0234375 C3.34039063 0.01183594 3.34039063 0.01183594 4.46875 0 C9.9810554 0.0201179 9.9810554 0.0201179 12.234375 2.2734375 C12.48605728 4.30994415 12.48605728 4.30994415 12.48834229 6.86633301 C12.49398193 7.83381973 12.49962158 8.80130646 12.50543213 9.79811096 C12.50138367 10.86311325 12.49733521 11.92811554 12.49316406 13.02539062 C12.4966687 14.14413071 12.50017334 15.26287079 12.50378418 16.41551208 C12.51261613 20.12863292 12.5067471 23.84156459 12.5 27.5546875 C12.50134623 30.12536659 12.5032864 32.69604542 12.50579834 35.26672363 C12.50875159 40.66042736 12.50463509 46.05405945 12.49511719 51.44775391 C12.48423232 57.68825748 12.48775779 63.92863039 12.49877 70.1691308 C12.50893026 76.16631538 12.50786669 82.16343589 12.50200653 88.16062927 C12.50066852 90.71561196 12.50232299 93.27059796 12.50696564 95.82557678 C12.51202187 99.39097031 12.50433319 102.95610985 12.49316406 106.52148438 C12.49721252 107.58648666 12.50126099 108.65148895 12.50543213 109.74876404 C12.49979248 110.71625076 12.49415283 111.68373749 12.48834229 112.68054199 C12.48758823 113.52415031 12.48683418 114.36775864 12.48605728 115.23693085 C12.234375 117.2734375 12.234375 117.2734375 10.234375 119.2734375 C7.37109375 119.79296875 7.37109375 119.79296875 3.921875 120.0859375 C2.22611328 120.25029297 2.22611328 120.25029297 0.49609375 120.41796875 C-3.19166043 120.25455928 -4.8729278 119.51867179 -7.765625 117.2734375 C-9.078125 114.5859375 -9.078125 114.5859375 -9.765625 112.2734375 C-9.105625 112.6034375 -8.445625 112.9334375 -7.765625 113.2734375 C-7.765625 113.9334375 -7.765625 114.5934375 -7.765625 115.2734375 C-1.825625 115.9334375 4.114375 116.5934375 10.234375 117.2734375 C10.234375 79.6534375 10.234375 42.0334375 10.234375 3.2734375 C4.624375 3.2734375 -0.985625 3.2734375 -6.765625 3.2734375 C-6.765625 29.6734375 -6.765625 56.0734375 -6.765625 83.2734375 C-7.425625 82.9434375 -8.085625 82.6134375 -8.765625 82.2734375 C-8.765625 81.6134375 -8.765625 80.9534375 -8.765625 80.2734375 C-10.085625 79.9434375 -11.405625 79.6134375 -12.765625 79.2734375 C-12.765625 77.9534375 -12.765625 76.6334375 -12.765625 75.2734375 C-13.425625 75.2734375 -14.085625 75.2734375 -14.765625 75.2734375 C-15.095625 72.9634375 -15.425625 70.6534375 -15.765625 68.2734375 C-12.49252505 71.05557246 -10.83685104 74.57176286 -8.765625 78.2734375 C-8.75753815 77.32574493 -8.74945129 76.37805237 -8.74111938 75.40164185 C-8.66373984 66.48416055 -8.57602162 57.56683337 -8.47809792 48.6495533 C-8.42808507 44.06473968 -8.38175567 39.47994966 -8.34375 34.89501953 C-8.30695996 30.47290071 -8.26061754 26.05097704 -8.20756149 21.62902451 C-8.18898402 19.93931363 -8.17388854 18.24956088 -8.16228104 16.55978775 C-8.14547558 14.19867076 -8.11645542 11.83800399 -8.08447266 9.47705078 C-8.08231247 8.77358521 -8.08015228 8.07011963 -8.07792664 7.34533691 C-7.96571512 0.88991006 -6.34754298 0.02316622 0 0 Z " fill="#BAD27E" transform="translate(534.765625,316.7265625)"/>
<path d="M0 0 C5.94 0 11.88 0 18 0 C18 33.99 18 67.98 18 103 C17.67 103 17.34 103 17 103 C16.2437829 96.94763487 15.85179355 91.06037904 15.8671875 84.96484375 C15.86520859 83.67951752 15.86520859 83.67951752 15.8631897 82.3682251 C15.86127256 79.55794686 15.86763356 76.74776821 15.875 73.9375 C15.87588623 72.97188141 15.87677246 72.00626282 15.87768555 71.01138306 C15.9025398 47.66822093 16.41982748 24.33497076 17 1 C14.70800823 1.14063135 12.41640814 1.28765943 10.125 1.4375 C8.84882813 1.51871094 7.57265625 1.59992188 6.2578125 1.68359375 C3.11699848 1.79206027 3.11699848 1.79206027 1 3 C1 40.29 1 77.58 1 116 C0.34 116 -0.32 116 -1 116 C-1.02332977 101.02313694 -1.04097956 86.04627528 -1.05181217 71.06939793 C-1.05697496 64.11583919 -1.06401734 57.16229173 -1.07543945 50.20874023 C-1.08644694 43.50442791 -1.09227621 36.80012975 -1.09487724 30.09580803 C-1.09673202 27.53162387 -1.10035364 24.96744038 -1.10573006 22.40326118 C-1.11293659 18.82554842 -1.11399111 15.24788481 -1.11352539 11.67016602 C-1.11712067 10.59842636 -1.12071594 9.52668671 -1.12442017 8.42247009 C-1.1230455 7.45346771 -1.12167084 6.48446533 -1.12025452 5.48609924 C-1.12117631 4.63897149 -1.1220981 3.79184374 -1.12304783 2.91904545 C-1 1 -1 1 0 0 Z " fill="#9EC163" transform="translate(417,319)"/>
<path d="M0 0 C0.69538879 -0.00111786 1.39077759 -0.00223572 2.10723877 -0.00338745 C29.97465356 0.01857678 29.97465356 0.01857678 40.6875 5.375 C39.01072412 18.50010777 34.41252426 31.484565 28.6875 43.375 C27.31081085 39.24493255 28.657497 37.74122091 30.4375 33.8125 C34.13939916 25.24717461 35.4858443 16.57715285 36.6875 7.375 C35.3675 7.375 34.0475 7.375 32.6875 7.375 C32.6875 6.715 32.6875 6.055 32.6875 5.375 C31.57375 5.395625 30.46 5.41625 29.3125 5.4375 C25.6875 5.375 25.6875 5.375 23.6875 4.375 C22.2409758 4.22432786 20.7887066 4.12638964 19.3359375 4.05859375 C18.05976562 3.99575195 18.05976562 3.99575195 16.7578125 3.93164062 C15.86835937 3.89232422 14.97890625 3.85300781 14.0625 3.8125 C13.1653125 3.76931641 12.268125 3.72613281 11.34375 3.68164062 C9.12515717 3.57543139 6.9064512 3.47338806 4.6875 3.375 C4.6875 3.045 4.6875 2.715 4.6875 2.375 C1.79160348 2.34793555 -1.10403795 2.32812971 -4 2.3125 C-4.81662109 2.30412109 -5.63324219 2.29574219 -6.47460938 2.28710938 C-10.58422807 2.27047124 -14.28890017 2.45532004 -18.3125 3.375 C-19.74878457 3.43766512 -21.1875555 3.46186347 -22.625 3.4375 C-24.4503125 3.4065625 -24.4503125 3.4065625 -26.3125 3.375 C-26.3125 3.045 -26.3125 2.715 -26.3125 2.375 C-17.53854157 0.38190893 -8.97333959 -0.020345 0 0 Z " fill="#A1C684" transform="translate(547.3125,177.625)"/>
<path d="M0 0 C0.66 0.33 1.32 0.66 2 1 C1.54625 1.37125 1.0925 1.7425 0.625 2.125 C-1.21440908 4.00597425 -1.21440908 4.00597425 -2 7 C-2.98800879 9.96402636 -3.71327158 11.01154051 -6 13 C-7.20029908 15.40059817 -7.11459743 16.89360649 -7.09765625 19.5703125 C-7.09443359 20.46621094 -7.09121094 21.36210938 -7.08789062 22.28515625 C-7.07951172 23.22230469 -7.07113281 24.15945312 -7.0625 25.125 C-7.05798828 26.06988281 -7.05347656 27.01476562 -7.04882812 27.98828125 C-7.03702357 30.32558387 -7.02055759 32.66276061 -7 35 C-6.67 35 -6.34 35 -6 35 C-5.98018066 35.61520508 -5.96036133 36.23041016 -5.93994141 36.86425781 C-5.84450273 39.65992542 -5.73490045 42.4548651 -5.625 45.25 C-5.5940625 46.21808594 -5.563125 47.18617187 -5.53125 48.18359375 C-5.49257813 49.11816406 -5.45390625 50.05273438 -5.4140625 51.015625 C-5.3826416 51.87446289 -5.3512207 52.73330078 -5.31884766 53.61816406 C-4.97981686 56.1507708 -4.164597 57.75002253 -3 60 C-2.72555956 62.77269722 -2.53654708 65.47185006 -2.4375 68.25 C-2.20216855 73.88794067 -1.76560854 79.40662855 -1 85 C-9.45533533 72.316997 -9.46484372 47.93572528 -10 33 C-10.07927734 31.04900391 -10.07927734 31.04900391 -10.16015625 29.05859375 C-10.42902395 17.28686442 -8.65899717 9.98900267 -1 1 C-0.67 0.67 -0.34 0.34 0 0 Z " fill="#BBD472" transform="translate(317,62)"/>
<path d="M0 0 C-23.72408377 10.77965817 -51.93704751 14.75924615 -77 6 C-77.99 5.34 -78.98 4.68 -80 4 C-74.70013765 3.7791724 -70.11416542 4.07820974 -65.00390625 5.48828125 C-55.63271856 7.88131359 -44.83676497 7.85522652 -35.34765625 6.46484375 C-32.3569778 6.04956868 -30.02893015 6.02676352 -27.0625 6.4375 C-25.90427734 6.59025391 -25.90427734 6.59025391 -24.72265625 6.74609375 C-24.15417969 6.82988281 -23.58570313 6.91367187 -23 7 C-23 6.34 -23 5.68 -23 5 C-18.82262526 3.40861915 -15.46839215 2.78721942 -11 3 C-11 2.34 -11 1.68 -11 1 C-10.01 1 -9.02 1 -8 1 C-8 0.34 -8 -0.32 -8 -1 C-4.53578294 -2.23722038 -3.15772202 -1.73807388 0 0 Z " fill="#8AB865" transform="translate(528,274)"/>
<path d="M0 0 C3.3332536 3.3332536 5.12879672 5.60438502 7.3125 9.625 C7.84488281 10.58664062 8.37726563 11.54828125 8.92578125 12.5390625 C9.28027344 13.35117187 9.63476562 14.16328125 10 15 C9.67 15.66 9.34 16.32 9 17 C6.69 13.37 4.38 9.74 2 6 C2.00444122 6.9204158 2.00888245 7.8408316 2.01345825 8.78913879 C2.05350416 17.45600219 2.08396872 26.12283459 2.10362434 34.78976917 C2.11406913 39.24570978 2.12824099 43.70157404 2.15087891 48.1574707 C2.17258254 52.45628804 2.18456339 56.75503187 2.18975449 61.05389977 C2.19345471 62.69538213 2.20068017 64.3368604 2.21146011 65.97831154 C2.22594217 68.27444838 2.22797934 70.57028004 2.22705078 72.86645508 C2.231492 74.17439529 2.23593323 75.48233551 2.24050903 76.82991028 C2 80 2 80 0 83 C0 55.61 0 28.22 0 0 Z " fill="#D7E6AA" transform="translate(479,352)"/>
<path d="M0 0 C33.99 0 67.98 0 103 0 C101.12774634 3.74450732 100.46708807 4.70657061 97.3046875 7.015625 C96.58925781 7.54414063 95.87382813 8.07265625 95.13671875 8.6171875 C94.39035156 9.15601563 93.64398437 9.69484375 92.875 10.25 C92.12089844 10.80429687 91.36679687 11.35859375 90.58984375 11.9296875 C88.73177256 13.29384103 86.86851184 14.65020178 85 16 C84.01 15.505 84.01 15.505 83 15 C83 14.34 83 13.68 83 13 C83.99 13 84.98 13 86 13 C86 12.34 86 11.68 86 11 C86.99 11 87.98 11 89 11 C89 10.01 89 9.02 89 8 C91.475 7.505 91.475 7.505 94 7 C94.33 6.01 94.66 5.02 95 4 C95.99 3.01 96.98 2.02 98 1 C65.66 1 33.32 1 0 1 C0 0.67 0 0.34 0 0 Z " fill="#94BC76" transform="translate(604,492)"/>
<path d="M0 0 C0.97667842 3.14988969 0.97057251 5.54142652 0.56640625 8.80078125 C-0.17251434 15.93261034 -0.10899067 23.02436064 -0.0625 30.1875 C-0.05746963 31.53450352 -0.05290947 32.88150889 -0.04882812 34.22851562 C-0.03715354 37.48572537 -0.02077883 40.74283778 0 44 C0.66 44 1.32 44 2 44 C2 45.65 2 47.3 2 49 C2.66 49 3.32 49 4 49 C4.16435547 49.87011719 4.16435547 49.87011719 4.33203125 50.7578125 C5.3143365 55.59746277 6.54821911 59.65366116 9 64 C9.99 64 10.98 64 12 64 C12.33773437 64.61488281 12.67546875 65.22976563 13.0234375 65.86328125 C13.46945312 66.67152344 13.91546875 67.47976563 14.375 68.3125 C14.81585937 69.11300781 15.25671875 69.91351563 15.7109375 70.73828125 C16.73513335 72.53527943 17.85267138 74.27900708 19 76 C15.63820226 74.55922954 13.40843732 72.75249979 11 70 C11 69.34 11 68.68 11 68 C10.34 68 9.68 68 9 68 C-2.71047255 54.02298438 -4.11508514 32.35609374 -3 15 C-2.35193116 9.92240179 -1.24633806 4.96309621 0 0 Z " fill="#D2E4A1" transform="translate(567,352)"/>
<path d="M0 0 C0 0.33 0 0.66 0 1 C-1.258125 1.020625 -2.51625 1.04125 -3.8125 1.0625 C-4.52019531 1.07410156 -5.22789062 1.08570313 -5.95703125 1.09765625 C-8 1 -8 1 -11 0 C-14.89135502 -0.25944988 -18.78841978 -0.231444 -22.6875 -0.25 C-23.75162109 -0.270625 -24.81574219 -0.29125 -25.91210938 -0.3125 C-32.4051333 -0.34458412 -37.0546468 0.42121147 -43 3 C-46.5 3.1875 -46.5 3.1875 -49 3 C-35.87004075 -7.83299238 -14.7844234 -5.9456209 0 0 Z " fill="#BCD572" transform="translate(428,12)"/>
<path d="M0 0 C3.81813659 1.9090683 4.63800477 7.1494209 6 11 C11.53214824 28.30818308 9.73484058 47.75165218 5 65 C3.93445984 61.73631756 4.13366137 59.68492376 4.9375 56.375 C8.41924879 38.58729018 6.23248769 16.91675231 0 0 Z " fill="#C4D991" transform="translate(663,339)"/>
<path d="M0 0 C1.52773435 3.05546871 1.08021964 6.2234978 1.02172852 9.57080078 C1.0073172 10.74166733 1.0073172 10.74166733 0.99261475 11.93618774 C0.95956843 14.52265281 0.91925764 17.10895192 0.87890625 19.6953125 C0.85461063 21.48606781 0.8307668 23.27682931 0.80735779 25.06759644 C0.74446128 29.78589915 0.67541043 34.50409272 0.60510254 39.22229004 C0.53446932 44.03486145 0.46962238 48.84751038 0.40429688 53.66015625 C0.27521281 63.10685603 0.13963071 72.55345064 0 82 C-0.66 81.67 -1.32 81.34 -2 81 C-2 80.34 -2 79.68 -2 79 C-3.32 78.67 -4.64 78.34 -6 78 C-6 76.68 -6 75.36 -6 74 C-6.66 74 -7.32 74 -8 74 C-8.33 71.69 -8.66 69.38 -9 67 C-5.72690005 69.78213496 -4.07122604 73.29832536 -2 77 C-1.98969254 76.05008682 -1.97938507 75.10017365 -1.96876526 74.12147522 C-1.87119905 65.18902136 -1.76848134 56.25663978 -1.66066074 47.32430363 C-1.60539035 42.73160822 -1.55196391 38.1389065 -1.50268555 33.54614258 C-1.45510253 29.11760669 -1.40276219 24.68915071 -1.34705925 20.26070976 C-1.32660813 18.56736669 -1.3078997 16.87400169 -1.29092598 15.18062019 C-1.26694272 12.81702837 -1.23688034 10.45358896 -1.20532227 8.09008789 C-1.1995668 7.38302704 -1.19381134 6.67596619 -1.18788147 5.94747925 C-1.11405216 1.11405216 -1.11405216 1.11405216 0 0 Z " fill="#DAE6AE" transform="translate(528,318)"/>
<path d="M0 0 C0.33 0 0.66 0 1 0 C3.64083552 13.39280871 4.28920693 26.51546406 4.25 40.125 C4.24842896 41.34153259 4.24842896 41.34153259 4.24682617 42.5826416 C4.2404666 44.91201111 4.22451868 47.2410362 4.203125 49.5703125 C4.19875427 50.27574188 4.19438354 50.98117126 4.18988037 51.70797729 C4.1458602 54.7399017 3.96657434 57.10027698 3 60 C0.03 60.495 0.03 60.495 -3 61 C-2.67 60.34 -2.34 59.68 -2 59 C-1.34 59 -0.68 59 0 59 C0.9171543 56.2485371 1.12635665 54.62530468 1.12939453 51.79150391 C1.13254669 50.94697662 1.13569885 50.10244934 1.13894653 49.23233032 C1.1369223 48.32292694 1.13489807 47.41352356 1.1328125 46.4765625 C1.13376923 45.53823578 1.13472595 44.59990906 1.13571167 43.63314819 C1.13639228 41.64768405 1.13454628 39.66221768 1.13037109 37.67675781 C1.12503314 34.64382901 1.13031394 31.61104911 1.13671875 28.578125 C1.13605771 26.64843717 1.13477602 24.71874944 1.1328125 22.7890625 C1.13483673 21.88370758 1.13686096 20.97835266 1.13894653 20.04556274 C1.12354156 15.88745061 0.99701147 12.06188046 0 8 C-0.11678799 5.32321927 -0.0454506 2.68158543 0 0 Z " fill="#B3D095" transform="translate(433,248)"/>
<path d="M0 0 C6.99791788 6.02598484 9.0954285 12.98031716 10 22 C10.28046234 26.69865881 10.39526533 31.39282678 10.45996094 36.09838867 C10.48656251 37.56942311 10.52748442 39.04027115 10.58300781 40.51049805 C10.95669499 50.57416381 10.04354947 58.14453868 3 66 C1.515 66.99 1.515 66.99 0 68 C0.96778679 65.55461016 1.94710277 63.12108506 3 60.7109375 C9.55731226 45.39346588 10.74838259 25.80805213 5 10 C3.78964995 7.69457133 2.51672091 5.59383087 0.98828125 3.48828125 C0 2 0 2 0 0 Z " fill="#CCDF96" transform="translate(642,342)"/>
<path d="M0 0 C0.99 0.33 1.98 0.66 3 1 C-3.34770414 8.24348721 -13.51416913 10.15301119 -22.75 10.875 C-37.43313895 11.40976573 -37.43313895 11.40976573 -44 8 C-43.33581055 8.02094727 -42.67162109 8.04189453 -41.98730469 8.06347656 C-24.53404997 8.78850905 -24.53404997 8.78850905 -8 4 C-5.01893 2.7077574 -3.275941 2 0 2 C0 1.34 0 0.68 0 0 Z " fill="#C0D782" transform="translate(645,428)"/>
<path d="M0 0 C0.66 0.33 1.32 0.66 2 1 C1.01 1.33 0.02 1.66 -1 2 C-1 2.66 -1 3.32 -1 4 C-3.82587296 6.03725725 -6.66239155 7.82352286 -9.75 9.4375 C-12.55678644 11.38665725 -12.78054217 12.84375621 -14 16 C-15.48486109 17.82531267 -17.04462823 19.54357952 -18.66015625 21.25390625 C-20.13614342 23.17742306 -20.44444356 24.67452924 -21 27 C-21.66 27.33 -22.32 27.66 -23 28 C-23.72159424 29.64363134 -24.39351421 31.31050386 -25 33 C-26.04430782 30.3227745 -26.04718321 29.14368462 -25.13671875 26.37109375 C-19.99395868 15.96081663 -12.9868753 7.11441345 -3 1 C-2.01 0.67 -1.02 0.34 0 0 Z " fill="#CADF91" transform="translate(594,319)"/>
<path d="M0 0 C0.66 0.33 1.32 0.66 2 1 C1.54625 1.37125 1.0925 1.7425 0.625 2.125 C-1.21440908 4.00597425 -1.21440908 4.00597425 -2 7 C-2.98800879 9.96402636 -3.71327158 11.01154051 -6 13 C-7.69196504 16.38393008 -7.11986549 20.22477791 -7.09765625 23.9453125 C-7.0962413 24.8303244 -7.09482635 25.7153363 -7.09336853 26.62716675 C-7.0877614 29.45981191 -7.07520771 32.29237864 -7.0625 35.125 C-7.05748592 37.04296761 -7.05292285 38.96093646 -7.04882812 40.87890625 C-7.03778966 45.58596782 -7.02052025 50.2929706 -7 55 C-7.33 55 -7.66 55 -8 55 C-12.1368602 14.85815309 -12.1368602 14.85815309 -2.3046875 2.53125 C-1 1 -1 1 0 0 Z " fill="#D1E397" transform="translate(317,62)"/>
<path d="M0 0 C4.61400822 5.60918647 6.57113606 12.76560994 6 20 C6.68707031 20.04898438 7.37414062 20.09796875 8.08203125 20.1484375 C8.98308594 20.22320312 9.88414062 20.29796875 10.8125 20.375 C11.70582031 20.44460937 12.59914063 20.51421875 13.51953125 20.5859375 C16 21 16 21 19 23 C14.38 23 9.76 23 5 23 C5 22.34 5 21.68 5 21 C4.34 21 3.68 21 3 21 C2.49078672 18.81462633 1.99305563 16.62657569 1.5 14.4375 C1.2215625 13.21933594 0.943125 12.00117187 0.65625 10.74609375 C0.01362446 7.07777293 -0.11474823 3.71497397 0 0 Z " fill="#CBE08B" transform="translate(467,36)"/>
<path d="M0 0 C7.24158565 0.35000997 13.34405447 1.05602409 20 4 C20 4.66 20 5.32 20 6 C21.5778125 5.9071875 21.5778125 5.9071875 23.1875 5.8125 C29.29687123 5.77947637 35.11929067 7.49396468 41 9 C37.08193563 11.61204291 34.38619795 10.86514502 30 10 C27.53682021 9.36794807 25.08790667 8.67776454 22.65625 7.93359375 C22.00168823 7.73524429 21.34712646 7.53689484 20.67272949 7.33253479 C18.61323764 6.70694457 16.55663535 6.07241009 14.5 5.4375 C13.09132829 5.00786485 11.68247544 4.57882316 10.2734375 4.15039062 C6.84684097 3.10710057 3.42277209 2.05577886 0 1 C0 0.67 0 0.34 0 0 Z " fill="#98BE76" transform="translate(237,572)"/>
<path d="M0 0 C0.495 0.99 0.495 0.99 1 2 C-6.78593716 0.38911645 -14.37428218 -1.76543688 -22 -4 C-22 -4.66 -22 -5.32 -22 -6 C-28.6 -5.67 -35.2 -5.34 -42 -5 C-42 -5.33 -42 -5.66 -42 -6 C-28.2800559 -9.27798279 -12.2020822 -7.15894134 0 0 Z " fill="#C2DA84" transform="translate(647,321)"/>
<path d="M0 0 C0.66 0 1.32 0 2 0 C2.33 0.99 2.66 1.98 3 3 C-0.67235354 7.26498202 -3.89219704 10.57192523 -9.5390625 11.71875 C-11.94513633 11.86058172 -14.35544739 11.94609792 -16.765625 11.96484375 C-19.67512089 11.99646871 -22.18020676 12.32685387 -25 13 C-24 11 -24 11 -21.5 9.9375 C-18.60798053 9.16285193 -16.54834486 8.92376918 -13.625 8.8125 C-7.94287862 8.32133358 -4.8114827 4.96705342 -1 1 C-0.67 0.67 -0.34 0.34 0 0 Z " fill="#C0D772" transform="translate(377,15)"/>
<path d="M0 0 C0 0.99 0 1.98 0 3 C-1.175625 3.12375 -1.175625 3.12375 -2.375 3.25 C-5.13680512 3.72214303 -5.13680512 3.72214303 -6.25 6 C-6.4975 6.66 -6.745 7.32 -7 8 C-8 9 -8 9 -9.76586914 9.11352539 C-10.51473389 9.10828857 -11.26359863 9.10305176 -12.03515625 9.09765625 C-12.84404297 9.09443359 -13.65292969 9.09121094 -14.48632812 9.08789062 C-15.33646484 9.07951172 -16.18660156 9.07113281 -17.0625 9.0625 C-17.91650391 9.05798828 -18.77050781 9.05347656 -19.65039062 9.04882812 C-21.76695663 9.03700373 -23.88348685 9.01906769 -26 9 C-26.33 8.01 -26.66 7.02 -27 6 C-25.54980469 5.97873047 -25.54980469 5.97873047 -24.0703125 5.95703125 C-16.3534177 5.67433312 -10.65691052 5.08021677 -3.85546875 1.05859375 C-2 0 -2 0 0 0 Z " fill="#B2CD66" transform="translate(638,414)"/>
<path d="M0 0 C-4.14493033 1.12834465 -8.29110154 2.2520635 -12.4375 3.375 C-13.60216797 3.69210937 -14.76683594 4.00921875 -15.96679688 4.3359375 C-34.52121414 9.35347006 -34.52121414 9.35347006 -40 9 C-38.68 8.67 -37.36 8.34 -36 8 C-36 7.34 -36 6.68 -36 6 C-33.36 6 -30.72 6 -28 6 C-28 5.34 -28 4.68 -28 4 C-24.535 3.505 -24.535 3.505 -21 3 C-21 2.67 -21 2.34 -21 2 C-14.17841487 -0.22442993 -7.04946768 -1.91296285 0 0 Z " fill="#A5C882" transform="translate(542,579)"/>
<path d="M0 0 C1.8746679 -0.05460198 3.74980905 -0.09306244 5.625 -0.125 C7.19121094 -0.15980469 7.19121094 -0.15980469 8.7890625 -0.1953125 C12.17280007 0.01051095 14.84457052 0.79657795 18 2 C18.50812114 4.51943396 19.00664534 7.04016873 19.5 9.5625 C19.64308594 10.26697266 19.78617187 10.97144531 19.93359375 11.69726562 C20.80874925 16.21890238 21.14523405 20.39487028 21 25 C20.67 25 20.34 25 20 25 C19.73445313 23.81921875 19.46890625 22.6384375 19.1953125 21.421875 C18.83880998 19.86452189 18.48202428 18.30723358 18.125 16.75 C17.95097656 15.97269531 17.77695312 15.19539062 17.59765625 14.39453125 C17.33662109 13.26337891 17.33662109 13.26337891 17.0703125 12.109375 C16.91320801 11.41811523 16.75610352 10.72685547 16.59423828 10.01464844 C15.93978264 7.79584485 15.23333618 5.96231838 14 4 C10.67961467 2.85472827 10.67961467 2.85472827 6.875 2.25 C5.59367187 2.00765625 4.31234375 1.7653125 2.9921875 1.515625 C1.51105469 1.26039063 1.51105469 1.26039063 0 1 C0 0.67 0 0.34 0 0 Z " fill="#B9D781" transform="translate(392,231)"/>
<path d="M0 0 C0 0.99 0 1.98 0 3 C-6.24201827 9.22994473 -14.11576071 15.02311739 -22 19 C-22.66 18.67 -23.32 18.34 -24 18 C-24 17.01 -24 16.02 -24 15 C-20.91190305 13.23537317 -19.76687864 13 -16 13 C-16 12.34 -16 11.68 -16 11 C-15.01 11 -14.02 11 -13 11 C-13 10.34 -13 9.68 -13 9 C-12.01 9 -11.02 9 -10 9 C-9.79375 8.401875 -9.5875 7.80375 -9.375 7.1875 C-7.48896435 4.18698873 -5.17291047 3.45425063 -2 2 C-1.34 1.34 -0.68 0.68 0 0 Z " fill="#9DC67C" transform="translate(552,254)"/>
<path d="M0 0 C0.33 0 0.66 0 1 0 C1 1.65 1 3.3 1 5 C1.66 5 2.32 5 3 5 C3.10957031 5.58007812 3.21914063 6.16015625 3.33203125 6.7578125 C4.3143365 11.59746277 5.54821911 15.65366116 8 20 C8.99 20 9.98 20 11 20 C11.33773437 20.61488281 11.67546875 21.22976563 12.0234375 21.86328125 C12.69246094 23.07564453 12.69246094 23.07564453 13.375 24.3125 C14.03628906 25.51326172 14.03628906 25.51326172 14.7109375 26.73828125 C15.73513335 28.53527943 16.85267138 30.27900708 18 32 C14.63820226 30.55922954 12.40843732 28.75249979 10 26 C10 25.34 10 24.68 10 24 C9.34 24 8.68 24 8 24 C2.39837747 16.29776903 -0.3265758 9.47069808 0 0 Z " fill="#D7E8A5" transform="translate(568,396)"/>
<path d="M0 0 C4.00669971 1.35437737 6.4233316 3.13406231 9.5 6 C14.54436761 10.20996094 18.75039936 11.08077993 25.21484375 11.55078125 C28 12 28 12 31 15 C27.7 14.67 24.4 14.34 21 14 C21 13.67 21 13.34 21 13 C19.7625 12.896875 18.525 12.79375 17.25 12.6875 C13.60741876 12.22181098 11.76686767 11.49910628 9 9 C7.13890702 7.71466999 5.26585276 6.44819062 3.390625 5.18359375 C2.93171875 4.79300781 2.4728125 4.40242188 2 4 C2 3.34 2 2.68 2 2 C1.01 1.67 0.02 1.34 -1 1 C-0.67 0.67 -0.34 0.34 0 0 Z " fill="#C3DA7F" transform="translate(428,13)"/>
<path d="M0 0 C0.33 0 0.66 0 1 0 C0.98428955 0.56283691 0.9685791 1.12567383 0.95239258 1.70556641 C0.58753226 16.81417058 1.81516321 29.67997459 7 44 C6.34 44 5.68 44 5 44 C-2.78063015 35.83933908 -1.3642097 19.78669742 -1.203125 9.3359375 C-1.10187898 6.12753329 -0.79083367 3.12506855 0 0 Z " fill="#CCDF98" transform="translate(585,363)"/>
<path d="M0 0 C-10.19902548 4.63419407 -21.61074721 9.47019851 -33 9 C-32.67 8.34 -32.34 7.68 -32 7 C-29.03 7 -26.06 7 -23 7 C-23 6.34 -23 5.68 -23 5 C-18.82262526 3.40861915 -15.46839215 2.78721942 -11 3 C-11 2.34 -11 1.68 -11 1 C-10.01 1 -9.02 1 -8 1 C-8 0.34 -8 -0.32 -8 -1 C-4.53578294 -2.23722038 -3.15772202 -1.73807388 0 0 Z " fill="#9BC379" transform="translate(528,274)"/>
<path d="M0 0 C0.33 0 0.66 0 1 0 C1.33 11.22 1.66 22.44 2 34 C3.9797887 35.25264128 3.9797887 35.25264128 6.25 34.5 C9.4282598 33.92213458 11.85899662 34.34258069 15 35 C14.67 35.66 14.34 36.32 14 37 C9.38 37 4.76 37 0 37 C0 24.79 0 12.58 0 0 Z " fill="#71A341" transform="translate(416,272)"/>
<path d="M0 0 C0.33 0 0.66 0 1 0 C1.43240524 5.40506544 0.6553806 9.44902121 -1 14.625 C-3.2578682 21.9710219 -3.41868058 28.34744949 -3 36 C-3.99 35.67 -4.98 35.34 -6 35 C-5.67546929 22.79764528 -3.86919827 11.6075948 0 0 Z " fill="#B8D7A1" transform="translate(451,242)"/>
<path d="M0 0 C1.98 0 3.96 0 6 0 C2.95066554 2.03288964 0.37049732 3.00574935 -3.09375 4.1640625 C-4.28871094 4.56367187 -5.48367188 4.96328125 -6.71484375 5.375 C-8.58849609 5.99375 -8.58849609 5.99375 -10.5 6.625 C-11.74910156 7.04523437 -12.99820313 7.46546875 -14.28515625 7.8984375 C-15.48011719 8.29546875 -16.67507813 8.6925 -17.90625 9.1015625 C-19.00259766 9.46588379 -20.09894531 9.83020508 -21.22851562 10.20556641 C-24 11 -24 11 -27 11 C-26.67 10.01 -26.34 9.02 -26 8 C-23.36 8 -20.72 8 -18 8 C-18 7.34 -18 6.68 -18 6 C-16.35 6 -14.7 6 -13 6 C-13 5.34 -13 4.68 -13 4 C-11.02 4 -9.04 4 -7 4 C-7 3.34 -7 2.68 -7 2 C-4.69 2 -2.38 2 0 2 C0 1.34 0 0.68 0 0 Z " fill="#9BC276" transform="translate(569,567)"/>
<path d="M0 0 C0.33 0.66 0.66 1.32 1 2 C-3.26921759 8.93120033 -8.10586676 15.35342035 -14 21 C-14.66 21 -15.32 21 -16 21 C-16 19.68 -16 18.36 -16 17 C-15.34 17 -14.68 17 -14 17 C-13.67 15.68 -13.34 14.36 -13 13 C-12.01 13 -11.02 13 -10 13 C-9.34 11.68 -8.68 10.36 -8 9 C-7.01 9 -6.02 9 -5 9 C-4.731875 8.443125 -4.46375 7.88625 -4.1875 7.3125 C-2.89877353 4.80287477 -1.47073522 2.40665764 0 0 Z " fill="#C2D97D" transform="translate(485,166)"/>
<path d="M0 0 C0.66 0.33 1.32 0.66 2 1 C0.625 3 0.625 3 -1 5 C-1.66 5 -2.32 5 -3 5 C-3.0825 5.86625 -3.165 6.7325 -3.25 7.625 C-4.11357284 11.51107778 -5.55250016 13.88500021 -8 17 C-8.66 17 -9.32 17 -10 17 C-10.33 17.99 -10.66 18.98 -11 20 C-10.25992864 12.59928639 -7.93386434 7.55059739 -3 2 C-2.01 1.34 -1.02 0.68 0 0 Z " fill="#BED575" transform="translate(350,28)"/>
<path d="M0 0 C3.22946798 0.13959201 6.45848691 0.28778105 9.6875 0.4375 C11.05551758 0.49647461 11.05551758 0.49647461 12.45117188 0.55664062 C13.78051758 0.61948242 13.78051758 0.61948242 15.13671875 0.68359375 C16.35427856 0.73858032 16.35427856 0.73858032 17.59643555 0.79467773 C20.12144485 1.01037431 22.52600697 1.45899452 25 2 C25 2.66 25 3.32 25 4 C26.98 4 28.96 4 31 4 C31 4.33 31 4.66 31 5 C20.41745916 4.5590608 10.35912908 3.16439096 0 1 C0 0.67 0 0.34 0 0 Z " fill="#9AC078" transform="translate(309,590)"/>
<path d="M0 0 C0.99 0.495 0.99 0.495 2 1 C2 1.66 2 2.32 2 3 C7.94 3.66 13.88 4.32 20 5 C20 5.66 20 6.32 20 7 C17.9399629 7.25034126 15.87672534 7.47443346 13.8125 7.6875 C12.08966797 7.87892578 12.08966797 7.87892578 10.33203125 8.07421875 C6.56745328 7.99036531 4.9385487 7.29973376 2 5 C0.6875 2.3125 0.6875 2.3125 0 0 Z " fill="#B5CF73" transform="translate(525,429)"/>
<path d="M0 0 C0 0.66 0 1.32 0 2 C-0.85549438 2.03758423 -0.85549438 2.03758423 -1.72827148 2.07592773 C-4.29826157 2.19156549 -6.86785527 2.31443624 -9.4375 2.4375 C-10.33533203 2.47681641 -11.23316406 2.51613281 -12.15820312 2.55664062 C-13.01220703 2.59853516 -13.86621094 2.64042969 -14.74609375 2.68359375 C-15.53685303 2.72025146 -16.3276123 2.75690918 -17.14233398 2.79467773 C-19.01401441 2.80563257 -19.01401441 2.80563257 -20 4 C-21.51928038 4.07179964 -23.04167482 4.08392007 -24.5625 4.0625 C-25.38878906 4.05347656 -26.21507812 4.04445313 -27.06640625 4.03515625 C-27.70449219 4.02355469 -28.34257813 4.01195312 -29 4 C-22.66437667 -2.33562333 -8.25172875 -0.11806925 0 0 Z " fill="#96B542" transform="translate(625,315)"/>
<path d="M0 0 C7.43015977 0.25144365 14.69221827 0.65497221 21 5 C21.33 5.99 21.66 6.98 22 8 C14.49068545 6.0827282 7.24196241 3.75950985 0 1 C0 0.67 0 0.34 0 0 Z " fill="#93B96D" transform="translate(214,564)"/>
<path d="M0 0 C0 0.99 0 1.98 0 3 C-1.46875 4.44213867 -1.46875 4.44213867 -3.5 5.91796875 C-4.221875 6.44970703 -4.94375 6.98144531 -5.6875 7.52929688 C-6.450625 8.07650391 -7.21375 8.62371094 -8 9.1875 C-8.763125 9.74630859 -9.52625 10.30511719 -10.3125 10.88085938 C-12.20219237 12.26269692 -14.09801324 13.6351601 -16 15 C-16.66 14.67 -17.32 14.34 -18 14 C-18 13.34 -18 12.68 -18 12 C-17.01 12 -16.02 12 -15 12 C-15 11.34 -15 10.68 -15 10 C-14.01 10 -13.02 10 -12 10 C-12 9.01 -12 8.02 -12 7 C-10.35 6.67 -8.7 6.34 -7 6 C-6.67 5.01 -6.34 4.02 -6 3 C-3.86928565 0.38503239 -3.5167455 0 0 0 Z " fill="#90B76E" transform="translate(705,493)"/>
<path d="M0 0 C7.06125389 -0.6538198 12.07177296 1.08825167 18 5 C18.99 6.485 18.99 6.485 20 8 C13.14381674 6.07443364 6.56747868 3.7527517 0 1 C0 0.67 0 0.34 0 0 Z " fill="#8DB568" transform="translate(194,556)"/>
<path d="M0 0 C6.90945008 2.92322888 10.96112584 7.94168876 15 14 C14.67 14.66 14.34 15.32 14 16 C8.63972746 12.62501359 6.90242933 11.11495141 5 5 C2.49004504 3.56076801 2.49004504 3.56076801 0 3 C0 2.01 0 1.02 0 0 Z " fill="#AAC75F" transform="translate(648,323)"/>
<path d="M0 0 C2.8125 -0.3125 2.8125 -0.3125 6 0 C8.79365324 3.67009348 9.74036153 7.34741866 10.6875 11.8125 C11.06455078 13.55466797 11.06455078 13.55466797 11.44921875 15.33203125 C11.63097656 16.21246094 11.81273437 17.09289062 12 18 C8.18066374 14.7262832 6.60205283 10.27936227 4.5 5.8125 C3.18699862 3.35062242 2.09359839 1.7945129 0 0 Z " fill="#C0DA7E" transform="translate(371,206)"/>
<path d="M0 0 C2.31 0.33 4.62 0.66 7 1 C7 1.66 7 2.32 7 3 C7.9075 2.95875 8.815 2.9175 9.75 2.875 C14.50765015 3.05798654 17.42075029 4.93207168 21 8 C21 8.66 21 9.32 21 10 C13.55620912 7.76686274 6.88023305 4.59727921 0 1 C0 0.67 0 0.34 0 0 Z " fill="#92B76E" transform="translate(173,546)"/>
<path d="M0 0 C0.680625 0.721875 1.36125 1.44375 2.0625 2.1875 C6.77453316 6.87291151 11.50773976 10.25817408 18 12 C13.12631262 13.94947495 8.79070398 11.71628159 4.1875 9.875 C0.88455914 7.04390784 0.76199675 4.22561833 0 0 Z " fill="#C0D780" transform="translate(592,407)"/>
<path d="M0 0 C0 0.99 0 1.98 0 3 C-0.73863281 2.79503906 -1.47726562 2.59007812 -2.23828125 2.37890625 C-9.17327404 0.53721185 -15.83749337 -0.59111675 -23 -1 C-23 -1.33 -23 -1.66 -23 -2 C-14.80863797 -2.96281832 -7.70617249 -3.50280568 0 0 Z " fill="#BAD577" transform="translate(635,333)"/>
<path d="M0 0 C1.69017016 4.1017544 0.2069396 7.11422949 -1.25 11.125 C-1.68828125 12.36507812 -2.1265625 13.60515625 -2.578125 14.8828125 C-4 18 -4 18 -7 20 C-7.25 13.375 -7.25 13.375 -5 10 C-2.95060107 6.75511836 -1.3367962 3.5990667 0 0 Z " fill="#C5DB83" transform="translate(444,208)"/>
<path d="M0 0 C3.29438001 2.49918483 4.35746873 4.74985097 5.375 8.625 C6.71599451 13.70269831 8.99696911 17.61448685 11.890625 21.96875 C12.25671875 22.6390625 12.6228125 23.309375 13 24 C12.67 24.66 12.34 25.32 12 26 C6.60168261 18.59167082 0 9.38980366 0 0 Z " fill="#D8E9A5" transform="translate(316,147)"/>
<path d="M0 0 C0 3.56238158 -1.00593996 5.62256047 -2.4375 8.875 C-4.0729015 12.59309231 -5.35514042 15.98259894 -6 20 C-6.33 20 -6.66 20 -7 20 C-6.38410194 5.68567961 -6.38410194 5.68567961 -3 1 C-2.01 0.67 -1.02 0.34 0 0 Z " fill="#C0D884" transform="translate(593,343)"/>
<path d="M0 0 C0.33 0.99 0.66 1.98 1 3 C-0.71194531 5.44563616 -2.49742681 7.53465446 -4.6875 9.5625 C-6.27724839 11.303653 -6.47237525 12.73875108 -7 15 C-7.99 15.495 -7.99 15.495 -9 16 C-9.72159424 17.64363134 -10.39351421 19.31050386 -11 21 C-11.97378856 18.40323049 -12.07793264 17.23157127 -11.1796875 14.5625 C-8.67282809 9.63884798 -6.67975555 6.16199699 -2 3 C-1.34 2.01 -0.68 1.02 0 0 Z " fill="#B9D377" transform="translate(580,331)"/>
<path d="M0 0 C1.98 0.66 3.96 1.32 6 2 C6 2.66 6 3.32 6 4 C6.66 4 7.32 4 8 4 C8 4.99 8 5.98 8 7 C8.61875 7.2475 9.2375 7.495 9.875 7.75 C12.35068687 9.20628639 12.95125002 10.37812506 14 13 C9.76090342 11.6145759 7.29341975 9.67287988 4.1875 6.5 C3.39730469 5.7059375 2.60710937 4.911875 1.79296875 4.09375 C0 2 0 2 0 0 Z " fill="#BED776" transform="translate(329,173)"/>
<path d="M0 0 C3.65431027 4.76649166 4.13385348 7.67521713 4.0625 13.625 C4.05798828 14.33140625 4.05347656 15.0378125 4.04882812 15.765625 C4.03703875 17.51045275 4.01910324 19.255237 4 21 C0.47111416 14.55014562 -0.31545811 7.25553656 0 0 Z " fill="#B2CE63" transform="translate(467,36)"/>
<path d="M0 0 C1 3 1 3 0.19555664 4.90112305 C-0.22862549 5.59761963 -0.65280762 6.29411621 -1.08984375 7.01171875 C-1.54423828 7.76904297 -1.99863281 8.52636719 -2.46679688 9.30664062 C-2.95212891 10.09232422 -3.43746094 10.87800781 -3.9375 11.6875 C-4.65969727 12.88342773 -4.65969727 12.88342773 -5.39648438 14.10351562 C-6.58865439 16.07472743 -7.7900261 18.03968412 -9 20 C-10.33332095 17.3333581 -9.67102033 15.83319697 -9 13 C-8.34 13 -7.68 13 -7 13 C-6.9175 12.2575 -6.835 11.515 -6.75 10.75 C-5.84809192 7.44300369 -4.46486192 6.31547635 -2 4 C-0.76487921 1.86690808 -0.76487921 1.86690808 0 0 Z " fill="#9DC47E" transform="translate(574,221)"/>
<path d="M0 0 C0.33 0 0.66 0 1 0 C1.02689216 1.47906892 1.04634621 2.95827483 1.0625 4.4375 C1.07410156 5.26121094 1.08570313 6.08492187 1.09765625 6.93359375 C1 9 1 9 0 10 C-1.58037765 10.15803776 -3.16479674 10.27651104 -4.75 10.375 C-8.98811161 10.73723176 -11.4108487 11.67760798 -15 14 C-17.1328125 13.5859375 -17.1328125 13.5859375 -19 13 C-12.91026866 9.50404312 -8.00004889 8.28688725 -1 8 C-0.67 5.36 -0.34 2.72 0 0 Z " fill="#D5E79B" transform="translate(338,48)"/>
<path d="M0 0 C6.08233706 0.67581523 12.01314152 1.73638028 18 3 C14.08780497 5.60813002 11.37898789 4.87100307 7 4 C4.63307548 3.40826887 2.33055558 2.72829862 0 2 C0 1.34 0 0.68 0 0 Z " fill="#8AB566" transform="translate(260,578)"/>
<path d="M0 0 C3.23165844 0.71730736 6.18707922 1.81315074 9.25 3.0625 C10.14203125 3.42472656 11.0340625 3.78695312 11.953125 4.16015625 C12.96632812 4.57587891 12.96632812 4.57587891 14 5 C14 5.99 14 6.98 14 8 C3.90882638 4.90009699 3.90882638 4.90009699 0 2 C0 1.34 0 0.68 0 0 Z " fill="#88B365" transform="translate(157,537)"/>
<path d="M0 0 C3.375 0.75 3.375 0.75 7 2 C8.125 4.0625 8.125 4.0625 9 6 C10.2375 6.2475 10.2375 6.2475 11.5 6.5 C12.7375 6.7475 12.7375 6.7475 14 7 C15.3125 9.0625 15.3125 9.0625 16 11 C11.87321179 9.55901911 8.69813572 7.52700506 5.1875 4.9375 C4.21167969 4.22464844 3.23585938 3.51179688 2.23046875 2.77734375 C1.49441406 2.19082031 0.75835937 1.60429687 0 1 C0 0.67 0 0.34 0 0 Z " fill="#96BC78" transform="translate(99,502)"/>
<path d="M0 0 C3.3332536 3.3332536 5.12879672 5.60438502 7.3125 9.625 C7.84488281 10.58664062 8.37726563 11.54828125 8.92578125 12.5390625 C9.28027344 13.35117187 9.63476562 14.16328125 10 15 C9.67 15.66 9.34 16.32 9 17 C6.69 13.37 4.38 9.74 2 6 C1.67 7.98 1.34 9.96 1 12 C0.67 12 0.34 12 0 12 C0 8.04 0 4.08 0 0 Z " fill="#D7E9A7" transform="translate(479,352)"/>
<path d="M0 0 C-1.175625 0.433125 -1.175625 0.433125 -2.375 0.875 C-5.09671632 1.84912254 -5.09671632 1.84912254 -7 4 C-9.5963192 4.38015988 -12.1662335 4.50595314 -14.78515625 4.65625 C-15.51605469 4.7696875 -16.24695313 4.883125 -17 5 C-17.33 5.66 -17.66 6.32 -18 7 C-18.66 6.34 -19.32 5.68 -20 5 C-17.42138975 3.96555751 -14.83825365 2.94727716 -12.25 1.9375 C-11.15558594 1.49567383 -11.15558594 1.49567383 -10.0390625 1.04492188 C-8.97558594 0.6340332 -8.97558594 0.6340332 -7.890625 0.21484375 C-7.24125977 -0.04176025 -6.59189453 -0.29836426 -5.92285156 -0.56274414 C-3.63367214 -1.08330284 -2.20743336 -0.72364304 0 0 Z " fill="#98C075" transform="translate(521,182)"/>
<path d="M0 0 C2.77186988 -0.10787818 5.53955537 -0.18723327 8.3125 -0.25 C9.09818359 -0.28351563 9.88386719 -0.31703125 10.69335938 -0.3515625 C16.51306823 -0.45062137 16.51306823 -0.45062137 19.04296875 1.890625 C20 4 20 4 20 6 C18.68 6 17.36 6 16 6 C16 4.68 16 3.36 16 2 C10.72 1.67 5.44 1.34 0 1 C0 0.67 0 0.34 0 0 Z " fill="#A2C057" transform="translate(463,318)"/>
<path d="M0 0 C0.86625 0.763125 1.7325 1.52625 2.625 2.3125 C5.54872544 4.76155002 8.5707962 6.32187899 12 8 C13.69859667 9.29241051 15.37609523 10.61490475 17 12 C10.24976498 11.66248825 6.07125597 7.77448292 1.26171875 3.4296875 C0 2 0 2 0 0 Z " fill="#CCE191" transform="translate(354,194)"/>
<path d="M0 0 C3.89581756 -0.02911003 7.791607 -0.04683587 11.6875 -0.0625 C12.79029297 -0.07087891 13.89308594 -0.07925781 15.02929688 -0.08789062 C16.6293457 -0.09272461 16.6293457 -0.09272461 18.26171875 -0.09765625 C19.24100342 -0.10289307 20.22028809 -0.10812988 21.22924805 -0.11352539 C23.92469572 -0.00308543 26.37545639 0.39465834 29 1 C29 1.33 29 1.66 29 2 C21.25 3.125 21.25 3.125 19 2 C17.5534758 1.84932786 16.1012066 1.75138964 14.6484375 1.68359375 C13.37226562 1.62075195 13.37226562 1.62075195 12.0703125 1.55664062 C11.18085937 1.51732422 10.29140625 1.47800781 9.375 1.4375 C8.4778125 1.39431641 7.580625 1.35113281 6.65625 1.30664062 C4.43765717 1.20043139 2.2189512 1.09838806 0 1 C0 0.67 0 0.34 0 0 Z " fill="#7FB05A" transform="translate(552,180)"/>
<path d="M0 0 C3.37244652 3.99697365 6.71374722 8.27090179 9 13 C8.67 13.66 8.34 14.32 8 15 C6.66666667 13.66666667 5.33333333 12.33333333 4 11 C3.443125 10.5875 2.88625 10.175 2.3125 9.75 C0.12107368 6.82809824 0.29406514 3.5875947 0 0 Z " fill="#BFD685" transform="translate(483,324)"/>
<path d="M0 0 C0.99 0 1.98 0 3 0 C1.83917375 3.48247874 1.09067524 3.88819244 -1.9375 5.75 C-2.64777344 6.19859375 -3.35804688 6.6471875 -4.08984375 7.109375 C-4.72019531 7.40328125 -5.35054687 7.6971875 -6 8 C-6.66 7.67 -7.32 7.34 -8 7 C-8 6.01 -8 5.02 -8 4 C-4.91190305 2.23537317 -3.76687864 2 0 2 C0 1.34 0 0.68 0 0 Z " fill="#8FBB6B" transform="translate(536,265)"/>
<path d="M0 0 C0.66 0.33 1.32 0.66 2 1 C1.401875 1.556875 0.80375 2.11375 0.1875 2.6875 C-2.09884634 4.90120399 -2.09884634 4.90120399 -3.4375 7.6875 C-5 10 -5 10 -7.6875 10.8125 C-8.450625 10.874375 -9.21375 10.93625 -10 11 C-10 10.34 -10 9.68 -10 9 C-8.3203125 7.34375 -8.3203125 7.34375 -6.125 5.5 C-4.00964496 3.71066742 -1.95980876 1.95980876 0 0 Z " fill="#9CC678" transform="translate(482,199)"/>
<path d="M0 0 C-8.20689655 7 -8.20689655 7 -13 7 C-13 6.01 -13 5.02 -13 4 C-11.68 4 -10.36 4 -9 4 C-8.67 3.01 -8.34 2.02 -8 1 C-5.07175348 0.02391783 -3.04386724 -0.08226668 0 0 Z " fill="#8EB769" transform="translate(648,533)"/>
<path d="M0 0 C2.31 0.33 4.62 0.66 7 1 C7 1.66 7 2.32 7 3 C7.99 3 8.98 3 10 3 C12.1875 5.5 12.1875 5.5 14 8 C11.08256853 7.35895004 8.55578936 6.43991189 5.875 5.125 C5.19179688 4.79757812 4.50859375 4.47015625 3.8046875 4.1328125 C2 3 2 3 0 0 Z " fill="#C0D57F" transform="translate(586,428)"/>
<path d="M0 0 C6.06892629 -0.25287193 11.16200408 0.30167391 17 2 C14 4 14 4 10.75 3.75 C7.07146147 3.01429229 3.5835711 2.09701156 0 1 C0 0.67 0 0.34 0 0 Z " fill="#95C272" transform="translate(448,278)"/>
<path d="M0 0 C0.78375 0.04125 1.5675 0.0825 2.375 0.125 C-1.95833333 4.45833333 -6.29166667 8.79166667 -10.625 13.125 C-10.625 10.125 -10.625 10.125 -8.1875 7.625 C-7.341875 6.8 -6.49625 5.975 -5.625 5.125 C-5.295 4.135 -4.965 3.145 -4.625 2.125 C-2.625 0.125 -2.625 0.125 0 0 Z " fill="#CDE292" transform="translate(456.625,194.875)"/>
<path d="M0 0 C0.66 0.33 1.32 0.66 2 1 C1.51917969 1.78632812 1.03835938 2.57265625 0.54296875 3.3828125 C-1.41435323 7.97136984 -1.55742955 11.93975531 -1.6875 16.875 C-1.72166016 17.75414063 -1.75582031 18.63328125 -1.79101562 19.5390625 C-1.8729314 21.69227705 -1.93815579 23.84611551 -2 26 C-2.33 26 -2.66 26 -3 26 C-3.08745946 22.6043303 -3.14054444 19.20895227 -3.1875 15.8125 C-3.21263672 14.85279297 -3.23777344 13.89308594 -3.26367188 12.90429688 C-3.35493909 4.11222193 -3.35493909 4.11222193 0 0 Z " fill="#9DC036" transform="translate(312,72)"/>
<path d="M0 0 C0.33 0 0.66 0 1 0 C1.34548714 6.33393082 0.29342747 11.10261508 -2 17 C-2.33 17 -2.66 17 -3 17 C-3.34548714 10.66606918 -2.29342747 5.89738492 0 0 Z " fill="#98C27A" transform="translate(451,242)"/>
<path d="M0 0 C0.93423645 3.01031744 1.04449911 3.86650268 0 7 C-1 8 -2 9 -3 10 C-4.17574711 12.09989652 -4.17574711 12.09989652 -5 14 C-5.66 14 -6.32 14 -7 14 C-5.53967505 8.68972746 -3.01679014 4.53669968 0 0 Z " fill="#9DC57B" transform="translate(462,221)"/>
<path d="M0 0 C-6.56654456 2.3030887 -12.03672362 3.33693273 -19 3 C-18.360625 2.690625 -17.72125 2.38125 -17.0625 2.0625 C-15.06389179 1.1654837 -15.06389179 1.1654837 -14 0 C-12.40366983 -0.26169347 -10.79670875 -0.46007377 -9.1875 -0.625 C-8.31480469 -0.72039063 -7.44210937 -0.81578125 -6.54296875 -0.9140625 C-4.11299888 -0.9961813 -2.30646472 -0.7204342 0 0 Z " fill="#9CC177" transform="translate(542,579)"/>
<path d="M0 0 C0.33 0.66 0.66 1.32 1 2 C3.31 2 5.62 2 8 2 C8 2.33 8 2.66 8 3 C5.95928485 3.33910994 3.91737379 3.67102704 1.875 4 C0.16957031 4.2784375 0.16957031 4.2784375 -1.5703125 4.5625 C-4.76137602 4.96956049 -7.78817791 5.07809902 -11 5 C-9.9375 3.4375 -9.9375 3.4375 -8 2 C-4.3125 2.3125 -4.3125 2.3125 -1 3 C-0.67 2.01 -0.34 1.02 0 0 Z " fill="#9DC57D" transform="translate(483,588)"/>
<path d="M0 0 C0.99 0.33 1.98 0.66 3 1 C-0.36736031 3.82858266 -3.87451958 5.4998253 -8 7 C-8.99 6.67 -9.98 6.34 -11 6 C-9.69363006 3.38726012 -8.71590242 3.02763876 -6 2 C-2.75 1.875 -2.75 1.875 0 2 C0 1.34 0 0.68 0 0 Z " fill="#9EC479" transform="translate(604,553)"/>
<path d="M0 0 C0.33 0 0.66 0 1 0 C1 5.61 1 11.22 1 17 C1.99 17.33 2.98 17.66 4 18 C2.0625 18.5625 2.0625 18.5625 0 19 C-1 18 -1 18 -1.1328125 15.234375 C-1.13023437 14.08453125 -1.12765625 12.9346875 -1.125 11.75 C-1.12757813 10.61046875 -1.13015625 9.4709375 -1.1328125 8.296875 C-1.01609587 5.39955624 -0.66645245 2.81391036 0 0 Z " fill="#69A241" transform="translate(448,259)"/>
<path d="M0 0 C-1.75864246 2.1793144 -2.69396 2.93686419 -5.48046875 3.51171875 C-6.82044922 3.59873047 -6.82044922 3.59873047 -8.1875 3.6875 C-9.08855469 3.75324219 -9.98960937 3.81898437 -10.91796875 3.88671875 C-11.60503906 3.92410156 -12.29210937 3.96148438 -13 4 C-5.27825131 -1.95490789 -5.27825131 -1.95490789 0 0 Z " fill="#BDD66F" transform="translate(392,11)"/>
<path d="M0 0 C0.33 0.66 0.66 1.32 1 2 C-0.75128818 1.71617054 -2.50100003 1.42260471 -4.25 1.125 C-5.22453125 0.96257813 -6.1990625 0.80015625 -7.203125 0.6328125 C-9.77264117 0.05144152 -11.72071056 -0.70840265 -14 -2 C-9.02317633 -3.76596969 -4.60954381 -2.16191414 0 0 Z " fill="#9CC07A" transform="translate(289,585)"/>
<path d="M0 0 C0.66 0 1.32 0 2 0 C2.33773437 0.61488281 2.67546875 1.22976563 3.0234375 1.86328125 C3.46945312 2.67152344 3.91546875 3.47976563 4.375 4.3125 C4.81585937 5.11300781 5.25671875 5.91351563 5.7109375 6.73828125 C6.73513335 8.53527943 7.85267138 10.27900708 9 12 C5.61447304 10.54905987 3.31867051 8.8783496 1 6 C0.25 2.75 0.25 2.75 0 0 Z " fill="#B6CF72" transform="translate(577,416)"/>
<path d="M0 0 C0.33 0.66 0.66 1.32 1 2 C0.07421875 4.34765625 0.07421875 4.34765625 -1.3125 7.0625 C-1.98732422 8.41021484 -1.98732422 8.41021484 -2.67578125 9.78515625 C-4 12 -4 12 -6 13 C-6.33 11.35 -6.66 9.7 -7 8 C-6.01 8 -5.02 8 -4 8 C-3.8453125 7.13375 -3.8453125 7.13375 -3.6875 6.25 C-2.90207202 3.67950842 -1.69495803 2.06342716 0 0 Z " fill="#BAD27D" transform="translate(666,404)"/>
<path d="M0 0 C-1.45449401 1.0055761 -2.91372443 2.00430435 -4.375 3 C-5.59316406 3.8353125 -5.59316406 3.8353125 -6.8359375 4.6875 C-9 6 -9 6 -11 6 C-11 5.01 -11 4.02 -11 3 C-10.01 3 -9.02 3 -8 3 C-7.67 2.01 -7.34 1.02 -7 0 C-3.86650268 -1.04449911 -3.01031744 -0.93423645 0 0 Z " fill="#92BA6C" transform="translate(671,520)"/>
<path d="M0 0 C1.10176129 3.35216734 0.89303058 5.75121078 0.1875 9.1875 C0.01605469 10.06792969 -0.15539062 10.94835937 -0.33203125 11.85546875 C-0.55246094 12.56316406 -0.77289062 13.27085937 -1 14 C-1.99 14.495 -1.99 14.495 -3 15 C-2.22095672 4.44191344 -2.22095672 4.44191344 0 0 Z " fill="#9BBE46" transform="translate(570,347)"/>
<path d="M0 0 C5.49418605 -0.36627907 5.49418605 -0.36627907 7.8125 1.3125 C9 3 9 3 10 6 C5.56909529 4.79157144 3.01887244 3.48331435 0 0 Z " fill="#91B96D" transform="translate(131,523)"/>
<path d="M0 0 C2.62400522 2.37409996 4.44568209 4.81364829 6 8 C5.6875 10.3125 5.6875 10.3125 5 12 C4.34 11.67 3.68 11.34 3 11 C3 9.68 3 8.36 3 7 C2.34 7 1.68 7 1 7 C0.67 4.69 0.34 2.38 0 0 Z " fill="#C0D584" transform="translate(519,385)"/>
<path d="M0 0 C2.97 0.99 5.94 1.98 9 3 C9 4.32 9 5.64 9 7 C2.29787234 5.06382979 2.29787234 5.06382979 0 2 C0 1.34 0 0.68 0 0 Z " fill="#C1DB7D" transform="translate(383,224)"/>
<path d="M0 0 C3.4375 0.8125 3.4375 0.8125 5.4375 2.8125 C3.43795254 2.85504356 1.43708364 2.85330783 -0.5625 2.8125 C-0.8925 2.4825 -1.2225 2.1525 -1.5625 1.8125 C-1.8925 2.4725 -2.2225 3.1325 -2.5625 3.8125 C-3.8825 3.4825 -5.2025 3.1525 -6.5625 2.8125 C-4.51257555 -0.20209478 -3.75198575 -0.19747293 0 0 Z " fill="#629D33" transform="translate(484.5625,587.1875)"/>
<path d="M0 0 C1.8871875 0.0309375 1.8871875 0.0309375 3.8125 0.0625 C1.8498772 2.11045423 0.3847693 3.01226638 -2.45703125 3.26171875 C-4.70704383 3.25108877 -6.94135562 3.19208525 -9.1875 3.0625 C-6.30623588 0.18123588 -3.90053134 -0.06394314 0 0 Z " fill="#B3CD6B" transform="translate(605.1875,315.9375)"/>
<path d="M0 0 C0.99 0.33 1.98 0.66 3 1 C0.16569547 4.2542015 -1.68607774 5.5206753 -6 6 C-6.33 5.01 -6.66 4.02 -7 3 C-3.535 2.505 -3.535 2.505 0 2 C0 1.34 0 0.68 0 0 Z " fill="#BCD478" transform="translate(645,428)"/>
<path d="M0 0 C2.74277578 3.19990508 4.6302836 6.00499382 6 10 C5.01 9.67 4.02 9.34 3 9 C3 8.34 3 7.68 3 7 C2.01 7 1.02 7 0 7 C0 4.69 0 2.38 0 0 Z " fill="#BED680" transform="translate(492,339)"/>
<path d="M0 0 C0.33 0.66 0.66 1.32 1 2 C0.22265625 3.7265625 0.22265625 3.7265625 -0.9375 5.625 C-1.618125 6.73875 -2.29875 7.8525 -3 9 C-3.99 9 -4.98 9 -6 9 C-4.47291037 5.56404834 -2.40072955 2.88087546 0 0 Z " fill="#9DC57B" transform="translate(469,212)"/>
<path d="M0 0 C0.66 0.33 1.32 0.66 2 1 C-1.17320782 4.53586014 -3.16743695 6.58578031 -8 7 C-5.42215154 4.35247996 -3.08351902 2.05567935 0 0 Z " fill="#94BE72" transform="translate(492,192)"/>
<path d="M0 0 C4.7517398 0.43197635 6.92000054 1.32769295 10 5 C9.01 5.495 9.01 5.495 8 6 C6.0546875 5.0390625 6.0546875 5.0390625 3.875 3.625 C3.15054688 3.16351562 2.42609375 2.70203125 1.6796875 2.2265625 C1.12539062 1.82179688 0.57109375 1.41703125 0 1 C0 0.67 0 0.34 0 0 Z " fill="#93BA71" transform="translate(121,517)"/>
<path d="M0 0 C0.69480469 0.14308594 1.38960937 0.28617187 2.10546875 0.43359375 C5.16693345 1.03266579 8.23455833 1.55514698 11.3125 2.0625 C12.38113281 2.23910156 13.44976563 2.41570312 14.55078125 2.59765625 C15.35902344 2.73042969 16.16726563 2.86320312 17 3 C17 3.33 17 3.66 17 4 C14.72844502 3.91297874 12.45769257 3.80480478 10.1875 3.6875 C8.92292969 3.62949219 7.65835938 3.57148438 6.35546875 3.51171875 C3 3 3 3 1.05078125 1.45703125 C0.70402344 0.97621094 0.35726562 0.49539063 0 0 Z " fill="#98B63F" transform="translate(597,433)"/>
<path d="M0 0 C4.95 0.33 9.9 0.66 15 1 C15 1.33 15 1.66 15 2 C13.06325815 2.19517554 11.12555991 2.38087873 9.1875 2.5625 C8.10855469 2.66691406 7.02960937 2.77132813 5.91796875 2.87890625 C3 3 3 3 0 2 C0 1.34 0 0.68 0 0 Z " fill="#A0BC50" transform="translate(606,420)"/>
<path d="M0 0 C2.61724095 2.36797991 4.32861729 4.89600354 6 8 C6 8.66 6 9.32 6 10 C5.34 10 4.68 10 4 10 C4 9.01 4 8.02 4 7 C2.68 7 1.36 7 0 7 C0 4.69 0 2.38 0 0 Z " fill="#BFD581" transform="translate(513,375)"/>
<path d="M0 0 C6.4 0.36923077 6.4 0.36923077 9.4375 3.5625 C9.953125 4.366875 10.46875 5.17125 11 6 C10.67 6.66 10.34 7.32 10 8 C9.0925 7.21625 8.185 6.4325 7.25 5.625 C4.94809764 3.69947504 2.78422793 2.17794259 0 1 C0 0.67 0 0.34 0 0 Z " fill="#CCE190" transform="translate(343,186)"/>
<path d="M0 0 C1.65 0.33 3.3 0.66 5 1 C2.73814546 3.26185454 1.03016439 4.03921617 -2 5 C-2.99 4.67 -3.98 4.34 -5 4 C-4.67 3.34 -4.34 2.68 -4 2 C-2.68 2 -1.36 2 0 2 C0 1.34 0 0.68 0 0 Z " fill="#99C074" transform="translate(588,559)"/>
<path d="M0 0 C3.94139078 1.66751148 6.7892812 4.22710649 10 7 C9.67 7.66 9.34 8.32 9 9 C7.53515625 7.73046875 6.0703125 6.4609375 4.60546875 5.19140625 C2.89287029 3.79128769 2.89287029 3.79128769 0 3 C0 2.01 0 1.02 0 0 Z " fill="#CFE29A" transform="translate(648,323)"/>
<path d="M0 0 C0.66 0.33 1.32 0.66 2 1 C0.68 4.63 -0.64 8.26 -2 12 C-2.33 12 -2.66 12 -3 12 C-3.2954439 6.97745369 -2.98514628 4.10457614 0 0 Z " fill="#9EC243" transform="translate(444,205)"/>
<path d="M0 0 C0.99 0 1.98 0 3 0 C2.49701212 4.40114397 0.91227269 6.71195019 -2 10 C-1.34 6.7 -0.68 3.4 0 0 Z " fill="#CAE18F" transform="translate(488,156)"/>
<path d="M0 0 C1.32 0.33 2.64 0.66 4 1 C1.69 2.65 -0.62 4.3 -3 6 C-3.66 5.67 -4.32 5.34 -5 5 C-4.67 4.01 -4.34 3.02 -4 2 C-2.68 2 -1.36 2 0 2 C0 1.34 0 0.68 0 0 Z " fill="#A1C57D" transform="translate(676,513)"/>
<path d="M0 0 C0.33 0 0.66 0 1 0 C1 1.65 1 3.3 1 5 C1.66 5 2.32 5 3 5 C3 6.98 3 8.96 3 11 C2.34 11 1.68 11 1 11 C-0.28317892 7.15046324 -0.06643637 4.05261865 0 0 Z " fill="#B5D074" transform="translate(568,396)"/>
<path d="M0 0 C0.33 0 0.66 0 1 0 C0.8864371 1.64666203 0.75882619 3.29236082 0.625 4.9375 C0.52058594 6.31228516 0.52058594 6.31228516 0.4140625 7.71484375 C0.27742187 8.46894531 0.14078125 9.22304688 0 10 C-0.99 10.495 -0.99 10.495 -2 11 C-1.85892253 9.54119891 -1.71197585 8.08296449 -1.5625 6.625 C-1.48128906 5.81289063 -1.40007813 5.00078125 -1.31640625 4.1640625 C-1 2 -1 2 0 0 Z " fill="#9ABA4D" transform="translate(667,394)"/>
<path d="M0 0 C1.65 0 3.3 0 5 0 C4.34 0.53625 3.68 1.0725 3 1.625 C0.68975201 3.89958592 0.68975201 3.89958592 0.75 7.25 C0.8325 8.1575 0.915 9.065 1 10 C-1.56687367 6.1496895 -0.83288724 4.41430237 0 0 Z " fill="#CFE597" transform="translate(430,230)"/>
<path d="M0 0 C2.8125 -0.1875 2.8125 -0.1875 6 0 C6.99 0.99 7.98 1.98 9 3 C5.7 2.67 2.4 2.34 -1 2 C-0.67 1.34 -0.34 0.68 0 0 Z " fill="#B7D070" transform="translate(450,25)"/>
<path d="M0 0 C0.33 0.66 0.66 1.32 1 2 C0.00390625 3.9453125 0.00390625 3.9453125 -1.4375 6.125 C-1.91058594 6.84945312 -2.38367188 7.57390625 -2.87109375 8.3203125 C-3.24363281 8.87460938 -3.61617187 9.42890625 -4 10 C-5.33332095 7.3333581 -4.67102033 5.83319697 -4 3 C-3.01 3 -2.02 3 -1 3 C-0.67 2.01 -0.34 1.02 0 0 Z " fill="#A7CB8A" transform="translate(569,231)"/>
<path d="M0 0 C0.33 0 0.66 0 1 0 C1 2.64 1 5.28 1 8 C0.34 8 -0.32 8 -1 8 C-1.33 8.66 -1.66 9.32 -2 10 C-1.85950482 8.52031676 -1.71245174 7.04125484 -1.5625 5.5625 C-1.48128906 4.73878906 -1.40007813 3.91507813 -1.31640625 3.06640625 C-1 1 -1 1 0 0 Z " fill="#83B266" transform="translate(584,190)"/>
<path d="M0 0 C-1.65 1.32 -3.3 2.64 -5 4 C-5.66 3.67 -6.32 3.34 -7 3 C-6.67 2.01 -6.34 1.02 -6 0 C-3.50907189 -1.24546405 -2.58919267 -0.7767578 0 0 Z " fill="#92BB6C" transform="translate(655,529)"/>
<path d="M0 0 C0.99 0.33 1.98 0.66 3 1 C1.35 2.65 -0.3 4.3 -2 6 C-2.66 5.67 -3.32 5.34 -4 5 C-3.67 4.01 -3.34 3.02 -3 2 C-2.01 2 -1.02 2 0 2 C0 1.34 0 0.68 0 0 Z " fill="#99C075" transform="translate(684,507)"/>
<path d="M0 0 C0 0.99 0 1.98 0 3 C-4.43076923 5.09230769 -4.43076923 5.09230769 -7.3125 4.625 C-7.869375 4.41875 -8.42625 4.2125 -9 4 C-2.25 0 -2.25 0 0 0 Z " fill="#C8DD8E" transform="translate(638,414)"/>
<path d="M0 0 C-2.64 1.98 -5.28 3.96 -8 6 C-7.25 3.0625 -7.25 3.0625 -6 0 C-3.40948545 -1.21430369 -2.56984526 -1.28492263 0 0 Z " fill="#CCE295" transform="translate(602,337)"/>
<path d="M0 0 C2.125 0.375 2.125 0.375 4 1 C-1.75 6 -1.75 6 -4 6 C-2.84826645 3.53199953 -1.95216435 1.95216435 0 0 Z " fill="#9EC039" transform="translate(319,62)"/>
<path d="M0 0 C0 0.99 0 1.98 0 3 C-4.34285714 7 -4.34285714 7 -7 7 C-7 6.01 -7 5.02 -7 4 C-5.824375 3.566875 -5.824375 3.566875 -4.625 3.125 C-1.90328368 2.15087746 -1.90328368 2.15087746 0 0 Z " fill="#D0E39A" transform="translate(655,422)"/>
<path d="M0 0 C2.97 0.495 2.97 0.495 6 1 C6.33 2.65 6.66 4.3 7 6 C5.83054208 5.19152271 4.66449539 4.37810888 3.5 3.5625 C2.8503125 3.11003906 2.200625 2.65757812 1.53125 2.19140625 C1.0259375 1.79824219 0.520625 1.40507812 0 1 C0 0.67 0 0.34 0 0 Z " fill="#BCD579" transform="translate(635,336)"/>
<path d="M0 0 C3.93846154 3.32307692 3.93846154 3.32307692 4.25 6.75 C4.1675 7.4925 4.085 8.235 4 9 C3.34 9 2.68 9 2 9 C0.50178941 5.62902617 0 3.79557881 0 0 Z " fill="#CBDF8B" transform="translate(316,147)"/>
</svg>
